<svg width="413" height="162" viewBox="0 0 413 162" fill="none" xmlns="http://www.w3.org/2000/svg">
<rect width="413" height="162" fill="#1E1D1D"/>
<path d="M68.232 58.824C62.472 56.904 58.296 54.576 55.704 51.84C53.16 49.104 51.888 45.792 51.888 41.904C51.888 37.536 53.352 34.08 56.28 31.536C59.208 28.992 63.312 27.72 68.592 27.72C73.056 27.72 76.944 28.224 80.256 29.232C81.408 29.568 82.32 30.264 82.992 31.32C83.712 32.328 84.072 33.456 84.072 34.704V35.352C84.072 36.264 83.664 36.984 82.848 37.512C82.032 37.992 81.192 38.064 80.328 37.728C76.728 36.336 73.056 35.64 69.312 35.64C66.912 35.64 65.088 36.192 63.84 37.296C62.592 38.4 61.968 39.936 61.968 41.904C61.968 45.36 64.224 47.832 68.736 49.32C75.216 51.384 79.704 53.736 82.2 56.376C84.744 59.016 86.016 62.424 86.016 66.6C86.016 76.68 79.8 81.72 67.368 81.72C63.48 81.72 59.952 81.12 56.784 79.92C55.632 79.488 54.72 78.744 54.048 77.688C53.424 76.632 53.112 75.456 53.112 74.16V73.296C53.112 72.384 53.496 71.736 54.264 71.352C55.032 70.92 55.824 70.896 56.64 71.28C59.808 72.864 63.144 73.656 66.648 73.656C72.744 73.656 75.792 71.352 75.792 66.744C75.792 64.872 75.216 63.336 74.064 62.136C72.912 60.888 70.968 59.784 68.232 58.824Z" fill="#1A4C7B"/>
<path d="M68.232 58.824L68.6293 57.6917L68.6204 57.6886L68.6115 57.6856L68.232 58.824ZM55.704 51.84L54.8252 52.6572L54.8329 52.6653L55.704 51.84ZM56.28 31.536L55.493 30.6302L55.493 30.6302L56.28 31.536ZM80.256 29.232L79.9066 30.3801L79.92 30.384L80.256 29.232ZM82.992 31.32L81.9796 31.9642L81.9969 31.9913L82.0155 32.0175L82.992 31.32ZM82.848 37.512L83.4564 38.5463L83.4784 38.5334L83.4999 38.5195L82.848 37.512ZM80.328 37.728L80.7629 36.6096L80.7608 36.6088L80.328 37.728ZM63.84 37.296L64.6351 38.1948L64.6351 38.1948L63.84 37.296ZM68.736 49.32L68.3601 50.4597L68.3718 50.4634L68.736 49.32ZM82.2 56.376L81.328 57.2005L81.3359 57.2087L82.2 56.376ZM56.784 79.92L57.2091 78.7978L57.2053 78.7964L56.784 79.92ZM54.048 77.688L53.0149 78.2985L53.025 78.3155L53.0356 78.3323L54.048 77.688ZM54.264 71.352L54.8007 72.4253L54.8268 72.4122L54.8523 72.3979L54.264 71.352ZM56.64 71.28L57.1767 70.2067L57.1639 70.2003L57.151 70.1942L56.64 71.28ZM74.064 62.136L73.1822 62.9499L73.1902 62.9586L73.1983 62.967L74.064 62.136ZM68.6115 57.6856C62.9364 55.7939 58.9729 53.5457 56.5751 51.0147L54.8329 52.6653C57.6191 55.6063 62.0076 58.0141 67.8525 59.9624L68.6115 57.6856ZM56.5828 51.0229C54.2543 48.5187 53.088 45.5024 53.088 41.904H50.688C50.688 46.0816 52.0657 49.6893 54.8252 52.6571L56.5828 51.0229ZM53.088 41.904C53.088 37.8346 54.4362 34.7277 57.067 32.4418L55.493 30.6302C52.2678 33.4323 50.688 37.2374 50.688 41.904H53.088ZM57.067 32.4418C59.7087 30.1466 63.4963 28.92 68.592 28.92V26.52C63.1277 26.52 58.7073 27.8374 55.493 30.6302L57.067 32.4418ZM68.592 28.92C72.97 28.92 76.7351 29.4148 79.9066 30.38L80.6054 28.084C77.1529 27.0332 73.142 26.52 68.592 26.52V28.92ZM79.92 30.384C80.7795 30.6347 81.4566 31.1424 81.9796 31.9642L84.0044 30.6757C83.1834 29.3856 82.0365 28.5013 80.592 28.08L79.92 30.384ZM82.0155 32.0175C82.589 32.8203 82.872 33.7041 82.872 34.704H85.272C85.272 33.2079 84.835 31.8357 83.9685 30.6225L82.0155 32.0175ZM82.872 34.704V35.352H85.272V34.704H82.872ZM82.872 35.352C82.872 35.8259 82.6972 36.1803 82.1961 36.5045L83.4999 38.5195C84.6308 37.7877 85.272 36.7021 85.272 35.352H82.872ZM82.2396 36.4777C81.7323 36.7761 81.2762 36.8092 80.7629 36.6096L79.8931 38.8464C81.1078 39.3188 82.3317 39.2079 83.4564 38.5463L82.2396 36.4777ZM80.7608 36.6088C77.0271 35.1651 73.2086 34.44 69.312 34.44V36.84C72.9034 36.84 76.4289 37.5069 79.8952 38.8472L80.7608 36.6088ZM69.312 34.44C66.7463 34.44 64.5918 35.0288 63.0449 36.3972L64.6351 38.1948C65.5842 37.3552 67.0777 36.84 69.312 36.84V34.44ZM63.0449 36.3972C61.4923 37.7706 60.768 39.6606 60.768 41.904H63.168C63.168 40.2114 63.6917 39.0294 64.6351 38.1948L63.0449 36.3972ZM60.768 41.904C60.768 43.9205 61.4367 45.694 62.7736 47.1589C64.0868 48.5978 65.9859 49.6766 68.3602 50.4596L69.1118 48.1804C66.9741 47.4754 65.4892 46.5742 64.5464 45.5411C63.6273 44.534 63.168 43.3435 63.168 41.904H60.768ZM68.3718 50.4634C74.7999 52.5109 79.0468 54.7876 81.328 57.2004L83.072 55.5516C80.3612 52.6844 75.6321 50.2571 69.1002 48.1766L68.3718 50.4634ZM81.3359 57.2087C83.634 59.5935 84.816 62.6879 84.816 66.6H87.216C87.216 62.1601 85.854 58.4385 83.0641 55.5433L81.3359 57.2087ZM84.816 66.6C84.816 71.3807 83.3543 74.7733 80.5982 77.0079C77.7941 79.2815 73.4529 80.52 67.368 80.52V82.92C73.7151 82.92 78.6979 81.6385 82.1098 78.8721C85.5697 76.0667 87.216 71.8993 87.216 66.6H84.816ZM67.368 80.52C63.6041 80.52 60.2228 79.9394 57.2091 78.7978L56.3589 81.0422C59.6812 82.3006 63.3559 82.92 67.368 82.92V80.52ZM57.2053 78.7964C56.3017 78.4575 55.5952 77.8842 55.0604 77.0437L53.0356 78.3323C53.8448 79.6038 54.9623 80.5185 56.3627 81.0436L57.2053 78.7964ZM55.0811 77.0775C54.5726 76.217 54.312 75.2539 54.312 74.16H51.912C51.912 75.6581 52.2754 77.047 53.0149 78.2985L55.0811 77.0775ZM54.312 74.16V73.296H51.912V74.16H54.312ZM54.312 73.296C54.312 73.0099 54.3711 72.8411 54.4324 72.7378C54.491 72.6387 54.5931 72.5291 54.8007 72.4253L53.7273 70.2787C53.1669 70.5589 52.693 70.9653 52.3677 71.5142C52.0449 72.0589 51.912 72.6701 51.912 73.296H54.312ZM54.8523 72.3979C55.2726 72.1615 55.6545 72.1425 56.129 72.3658L57.151 70.1942C55.9935 69.6495 54.7914 69.6785 53.6757 70.3061L54.8523 72.3979ZM56.1033 72.3533C59.4361 74.0197 62.9556 74.856 66.648 74.856V72.456C63.3324 72.456 60.1799 71.7083 57.1767 70.2067L56.1033 72.3533ZM66.648 74.856C69.8129 74.856 72.4058 74.2639 74.2296 72.8853C76.1168 71.4588 76.992 69.3373 76.992 66.744H74.592C74.592 68.7587 73.9432 70.0932 72.7824 70.9707C71.5582 71.8961 69.5791 72.456 66.648 72.456V74.856ZM76.992 66.744C76.992 64.6043 76.3237 62.7571 74.9297 61.305L73.1983 62.967C74.1083 63.9149 74.592 65.1397 74.592 66.744H76.992ZM74.9458 61.3221C73.5976 59.8616 71.4363 58.6766 68.6293 57.6917L67.8347 59.9563C70.4997 60.8914 72.2264 61.9144 73.1822 62.9499L74.9458 61.3221Z" fill="white"/>
<path d="M142.784 89.616L127.592 62.04C127.16 61.272 127.184 60.48 127.664 59.664C128.144 58.848 128.84 58.44 129.752 58.44H133.208C134.456 58.44 135.608 58.776 136.664 59.448C137.72 60.12 138.512 61.008 139.04 62.112L148.4 81.912C148.4 81.96 148.424 81.984 148.472 81.984C148.52 81.984 148.544 81.96 148.544 81.912L157.904 62.112C158.432 61.008 159.224 60.12 160.28 59.448C161.336 58.776 162.488 58.44 163.736 58.44H166.904C167.816 58.44 168.512 58.848 168.992 59.664C169.472 60.48 169.496 61.272 169.064 62.04L153.872 89.616C153.632 90 153.512 90.384 153.512 90.768V106.896C153.512 108 153.104 108.96 152.288 109.776C151.52 110.592 150.584 111 149.48 111H147.176C146.072 111 145.112 110.592 144.296 109.776C143.528 108.96 143.144 108 143.144 106.896V90.768C143.144 90.384 143.024 90 142.784 89.616Z" fill="#00F0FF"/>
<path d="M142.784 89.616L141.733 90.195L141.749 90.224L141.766 90.252L142.784 89.616ZM127.592 62.04L128.643 61.4609L128.638 61.4517L127.592 62.04ZM127.664 59.664L126.63 59.0556L126.63 59.0556L127.664 59.664ZM136.664 59.448L136.02 60.4604L136.02 60.4604L136.664 59.448ZM139.04 62.112L140.125 61.5991L140.123 61.5943L139.04 62.112ZM148.4 81.912H149.6V81.6427L149.485 81.3991L148.4 81.912ZM148.544 81.912L147.459 81.3991L147.344 81.6427V81.912H148.544ZM157.904 62.112L156.821 61.5942L156.819 61.5991L157.904 62.112ZM160.28 59.448L159.636 58.4356L159.636 58.4356L160.28 59.448ZM168.992 59.664L167.958 60.2724L167.958 60.2724L168.992 59.664ZM169.064 62.04L168.018 61.4517L168.013 61.461L169.064 62.04ZM153.872 89.616L154.89 90.252L154.907 90.224L154.923 90.195L153.872 89.616ZM152.288 109.776L151.439 108.927L151.427 108.94L151.414 108.954L152.288 109.776ZM144.296 109.776L143.422 110.598L143.435 110.612L143.447 110.625L144.296 109.776ZM143.835 89.037L128.643 61.461L126.541 62.619L141.733 90.195L143.835 89.037ZM128.638 61.4517C128.434 61.0888 128.415 60.7534 128.698 60.2724L126.63 59.0556C125.953 60.2066 125.886 61.4552 126.546 62.6283L128.638 61.4517ZM128.698 60.2724C128.973 59.8058 129.285 59.64 129.752 59.64V57.24C128.395 57.24 127.315 57.8902 126.63 59.0556L128.698 60.2724ZM129.752 59.64H133.208V57.24H129.752V59.64ZM133.208 59.64C134.227 59.64 135.156 59.9105 136.02 60.4604L137.308 58.4356C136.06 57.6415 134.685 57.24 133.208 57.24V59.64ZM136.02 60.4604C136.891 61.0147 137.529 61.7332 137.957 62.6297L140.123 61.5943C139.495 60.2828 138.549 59.2253 137.308 58.4356L136.02 60.4604ZM137.955 62.6249L147.315 82.4249L149.485 81.3991L140.125 61.5991L137.955 62.6249ZM147.2 81.912C147.2 82.121 147.253 82.4981 147.569 82.8145C147.886 83.1309 148.263 83.184 148.472 83.184V80.784C148.633 80.784 148.974 80.8251 149.267 81.1175C149.559 81.4099 149.6 81.751 149.6 81.912H147.2ZM148.472 83.184C148.681 83.184 149.058 83.1309 149.375 82.8145C149.691 82.4981 149.744 82.121 149.744 81.912H147.344C147.344 81.751 147.385 81.4099 147.677 81.1175C147.97 80.825 148.311 80.784 148.472 80.784V83.184ZM149.629 82.4249L158.989 62.6249L156.819 61.5991L147.459 81.3991L149.629 82.4249ZM158.987 62.6297C159.415 61.7332 160.053 61.0147 160.924 60.4604L159.636 58.4356C158.395 59.2253 157.449 60.2828 156.821 61.5943L158.987 62.6297ZM160.924 60.4604C161.788 59.9105 162.717 59.64 163.736 59.64V57.24C162.259 57.24 160.884 57.6415 159.636 58.4356L160.924 60.4604ZM163.736 59.64H166.904V57.24H163.736V59.64ZM166.904 59.64C167.371 59.64 167.683 59.8058 167.958 60.2724L170.026 59.0556C169.341 57.8902 168.261 57.24 166.904 57.24V59.64ZM167.958 60.2724C168.241 60.7534 168.222 61.0888 168.018 61.4517L170.11 62.6283C170.77 61.4552 170.703 60.2066 170.026 59.0556L167.958 60.2724ZM168.013 61.461L152.821 89.037L154.923 90.195L170.115 62.619L168.013 61.461ZM152.854 88.98C152.517 89.5201 152.312 90.1215 152.312 90.768H154.712C154.712 90.6465 154.747 90.4799 154.89 90.252L152.854 88.98ZM152.312 90.768V106.896H154.712V90.768H152.312ZM152.312 106.896C152.312 107.666 152.042 108.325 151.439 108.927L153.137 110.625C154.166 109.595 154.712 108.334 154.712 106.896H152.312ZM151.414 108.954C150.869 109.533 150.248 109.8 149.48 109.8V112.2C150.92 112.2 152.171 111.651 153.162 110.598L151.414 108.954ZM149.48 109.8H147.176V112.2H149.48V109.8ZM147.176 109.8C146.406 109.8 145.747 109.53 145.145 108.927L143.447 110.625C144.477 111.654 145.738 112.2 147.176 112.2V109.8ZM145.17 108.954C144.608 108.356 144.344 107.689 144.344 106.896H141.944C141.944 108.311 142.448 109.564 143.422 110.598L145.17 108.954ZM144.344 106.896V90.768H141.944V106.896H144.344ZM144.344 90.768C144.344 90.1215 144.139 89.5201 143.802 88.98L141.766 90.252C141.909 90.4799 141.944 90.6465 141.944 90.768H144.344Z" fill="white"/>
<path d="M96.24 81C95.504 81 94.864 80.728 94.32 80.184C93.808 79.64 93.552 79 93.552 78.264V47.736C93.552 47 93.808 46.36 94.32 45.816C94.864 45.272 95.504 45 96.24 45H97.2C97.936 45 98.576 45.272 99.12 45.816C99.664 46.36 99.936 47 99.936 47.736V58.872C99.936 58.904 99.952 58.92 99.984 58.92C100.016 58.92 100.048 58.904 100.08 58.872C102.32 56.664 104.784 55.56 107.472 55.56C110.384 55.56 112.496 56.392 113.808 58.056C115.12 59.72 115.776 62.568 115.776 66.6V78.264C115.776 79 115.504 79.64 114.96 80.184C114.416 80.728 113.776 81 113.04 81H112.272C111.536 81 110.896 80.728 110.352 80.184C109.808 79.64 109.536 79 109.536 78.264V67.56C109.536 64.776 109.232 62.936 108.624 62.04C108.048 61.144 106.944 60.696 105.312 60.696C104.032 60.696 102.816 61.272 101.664 62.424C100.512 63.576 99.936 64.808 99.936 66.12V78.264C99.936 79 99.664 79.64 99.12 80.184C98.576 80.728 97.936 81 97.2 81H96.24ZM136.828 62.232C135.9 60.888 134.492 60.216 132.604 60.216C130.716 60.216 129.292 60.888 128.332 62.232C127.404 63.544 126.94 65.64 126.94 68.52C126.94 71.4 127.404 73.512 128.332 74.856C129.292 76.168 130.716 76.824 132.604 76.824C134.492 76.824 135.9 76.168 136.828 74.856C137.788 73.512 138.268 71.4 138.268 68.52C138.268 65.64 137.788 63.544 136.828 62.232ZM141.532 78.12C139.42 80.36 136.444 81.48 132.604 81.48C128.764 81.48 125.772 80.36 123.628 78.12C121.516 75.848 120.46 72.648 120.46 68.52C120.46 64.392 121.516 61.208 123.628 58.968C125.772 56.696 128.764 55.56 132.604 55.56C136.444 55.56 139.42 56.696 141.532 58.968C143.676 61.208 144.748 64.392 144.748 68.52C144.748 72.648 143.676 75.848 141.532 78.12ZM152.882 78.36L148.082 58.68C147.922 58.008 148.05 57.4 148.466 56.856C148.914 56.312 149.474 56.04 150.146 56.04H151.346C152.146 56.04 152.85 56.296 153.458 56.808C154.066 57.32 154.434 57.96 154.562 58.728L157.538 75.672C157.538 75.704 157.554 75.72 157.586 75.72C157.65 75.72 157.682 75.704 157.682 75.672L160.706 58.728C160.866 57.96 161.25 57.32 161.858 56.808C162.466 56.296 163.154 56.04 163.922 56.04H166.322C167.122 56.04 167.826 56.296 168.434 56.808C169.042 57.32 169.41 57.96 169.538 58.728L172.562 75.672C172.562 75.704 172.594 75.72 172.658 75.72C172.69 75.72 172.706 75.704 172.706 75.672L175.682 58.728C175.842 57.96 176.226 57.32 176.834 56.808C177.442 56.296 178.13 56.04 178.898 56.04H179.906C180.61 56.04 181.17 56.312 181.586 56.856C182.034 57.4 182.162 58.008 181.97 58.68L177.17 78.36C176.978 79.128 176.562 79.768 175.922 80.28C175.314 80.76 174.61 81 173.81 81H171.41C170.642 81 169.954 80.744 169.346 80.232C168.738 79.72 168.354 79.08 168.194 78.312L165.074 61.848C165.074 61.816 165.058 61.8 165.026 61.8C164.994 61.8 164.978 61.816 164.978 61.848L161.858 78.312C161.73 79.08 161.362 79.72 160.754 80.232C160.146 80.744 159.442 81 158.642 81H156.242C155.474 81 154.77 80.76 154.13 80.28C153.49 79.768 153.074 79.128 152.882 78.36Z" fill="#1A4C7B" fill-opacity="0.57"/>
<path d="M94.32 80.184L93.4462 81.0064L93.4586 81.0197L93.4715 81.0325L94.32 80.184ZM94.32 45.816L93.4715 44.9675L93.4586 44.9803L93.4462 44.9936L94.32 45.816ZM100.08 58.872L99.2376 58.0174L99.2315 58.0235L100.08 58.872ZM113.808 58.056L114.75 57.313L114.75 57.313L113.808 58.056ZM114.96 80.184L115.809 81.0325L115.809 81.0325L114.96 80.184ZM110.352 80.184L111.201 79.3355L111.201 79.3355L110.352 80.184ZM108.624 62.04L107.615 62.6889L107.623 62.7015L107.631 62.7138L108.624 62.04ZM101.664 62.424L100.815 61.5755L100.815 61.5755L101.664 62.424ZM96.24 79.8C95.838 79.8 95.4988 79.6658 95.1685 79.3355L93.4715 81.0325C94.2292 81.7902 95.17 82.2 96.24 82.2V79.8ZM95.1938 79.3616C94.8878 79.0364 94.752 78.6893 94.752 78.264H92.352C92.352 79.3107 92.7282 80.2436 93.4462 81.0064L95.1938 79.3616ZM94.752 78.264V47.736H92.352V78.264H94.752ZM94.752 47.736C94.752 47.3107 94.8878 46.9636 95.1938 46.6384L93.4462 44.9936C92.7282 45.7564 92.352 46.6893 92.352 47.736H94.752ZM95.1685 46.6645C95.4988 46.3342 95.838 46.2 96.24 46.2V43.8C95.17 43.8 94.2292 44.2098 93.4715 44.9675L95.1685 46.6645ZM96.24 46.2H97.2V43.8H96.24V46.2ZM97.2 46.2C97.602 46.2 97.9412 46.3342 98.2715 46.6645L99.9685 44.9675C99.2108 44.2098 98.27 43.8 97.2 43.8V46.2ZM98.2715 46.6645C98.6018 46.9948 98.736 47.334 98.736 47.736H101.136C101.136 46.666 100.726 45.7252 99.9685 44.9675L98.2715 46.6645ZM98.736 47.736V58.872H101.136V47.736H98.736ZM98.736 58.872C98.736 59.073 98.7871 59.4441 99.0995 59.7565C99.4119 60.0689 99.783 60.12 99.984 60.12V57.72C100.153 57.72 100.5 57.7631 100.797 58.0595C101.093 58.3559 101.136 58.703 101.136 58.872H98.736ZM99.984 60.12C100.447 60.12 100.766 59.8833 100.929 59.7205L99.2315 58.0235C99.3303 57.9247 99.5855 57.72 99.984 57.72V60.12ZM100.922 59.7266C102.979 57.6994 105.153 56.76 107.472 56.76V54.36C104.415 54.36 101.661 55.6286 99.2376 58.0174L100.922 59.7266ZM107.472 56.76C110.163 56.76 111.859 57.5216 112.866 58.799L114.75 57.313C113.133 55.2624 110.605 54.36 107.472 54.36V56.76ZM112.866 58.799C113.916 60.1308 114.576 62.6278 114.576 66.6H116.976C116.976 62.5082 116.324 59.3092 114.75 57.313L112.866 58.799ZM114.576 66.6V78.264H116.976V66.6H114.576ZM114.576 78.264C114.576 78.666 114.442 79.0052 114.111 79.3355L115.809 81.0325C116.566 80.2748 116.976 79.334 116.976 78.264H114.576ZM114.111 79.3355C113.781 79.6658 113.442 79.8 113.04 79.8V82.2C114.11 82.2 115.051 81.7902 115.809 81.0325L114.111 79.3355ZM113.04 79.8H112.272V82.2H113.04V79.8ZM112.272 79.8C111.87 79.8 111.531 79.6658 111.201 79.3355L109.503 81.0325C110.261 81.7902 111.202 82.2 112.272 82.2V79.8ZM111.201 79.3355C110.87 79.0052 110.736 78.666 110.736 78.264H108.336C108.336 79.334 108.746 80.2748 109.503 81.0325L111.201 79.3355ZM110.736 78.264V67.56H108.336V78.264H110.736ZM110.736 67.56C110.736 66.1311 110.658 64.9042 110.492 63.8964C110.329 62.9116 110.065 62.0263 109.617 61.3662L107.631 62.7138C107.791 62.9497 107.983 63.4324 108.124 64.2876C108.262 65.1198 108.336 66.2049 108.336 67.56H110.736ZM109.633 61.3911C108.736 59.9951 107.123 59.496 105.312 59.496V61.896C106.765 61.896 107.36 62.2929 107.615 62.6889L109.633 61.3911ZM105.312 59.496C103.633 59.496 102.128 60.2629 100.815 61.5755L102.513 63.2725C103.504 62.2811 104.431 61.896 105.312 61.896V59.496ZM100.815 61.5755C99.496 62.8949 98.736 64.4166 98.736 66.12H101.136C101.136 65.1994 101.528 64.2571 102.513 63.2725L100.815 61.5755ZM98.736 66.12V78.264H101.136V66.12H98.736ZM98.736 78.264C98.736 78.666 98.6018 79.0052 98.2715 79.3355L99.9685 81.0325C100.726 80.2748 101.136 79.334 101.136 78.264H98.736ZM98.2715 79.3355C97.9412 79.6658 97.602 79.8 97.2 79.8V82.2C98.27 82.2 99.2108 81.7902 99.9685 81.0325L98.2715 79.3355ZM97.2 79.8H96.24V82.2H97.2V79.8ZM136.828 62.232L135.841 62.9138L135.85 62.9273L135.86 62.9406L136.828 62.232ZM128.332 62.232L127.356 61.5345L127.352 61.539L128.332 62.232ZM128.332 74.856L127.345 75.5378L127.354 75.5514L127.364 75.5646L128.332 74.856ZM136.828 74.856L135.852 74.1585L135.848 74.163L136.828 74.856ZM141.532 78.12L140.659 77.2964L140.659 77.2968L141.532 78.12ZM123.628 78.12L122.749 78.937L122.755 78.9434L122.761 78.9497L123.628 78.12ZM123.628 58.968L122.755 58.1444L122.755 58.1448L123.628 58.968ZM141.532 58.968L140.653 59.785L140.659 59.7914L140.665 59.7977L141.532 58.968ZM137.816 61.5502C136.626 59.8273 134.815 59.016 132.604 59.016V61.416C134.169 61.416 135.174 61.9487 135.841 62.9138L137.816 61.5502ZM132.604 59.016C130.392 59.016 128.576 59.8265 127.356 61.5345L129.309 62.9295C130.009 61.9494 131.04 61.416 132.604 61.416V59.016ZM127.352 61.539C126.206 63.1594 125.74 65.564 125.74 68.52H128.14C128.14 65.716 128.602 63.9286 129.312 62.925L127.352 61.539ZM125.74 68.52C125.74 71.48 126.208 73.8914 127.345 75.5378L129.32 74.1742C128.6 73.1326 128.14 71.32 128.14 68.52H125.74ZM127.364 75.5646C128.588 77.2382 130.404 78.024 132.604 78.024V75.624C131.028 75.624 129.996 75.0978 129.301 74.1474L127.364 75.5646ZM132.604 78.024C134.804 78.024 136.613 77.2376 137.808 75.549L135.848 74.163C135.187 75.0984 134.181 75.624 132.604 75.624V78.024ZM137.805 75.5535C138.983 73.9037 139.468 71.485 139.468 68.52H137.068C137.068 71.315 136.593 73.1203 135.852 74.1585L137.805 75.5535ZM139.468 68.52C139.468 65.5589 138.985 63.147 137.797 61.5234L135.86 62.9406C136.592 63.941 137.068 65.7211 137.068 68.52H139.468ZM140.659 77.2968C138.827 79.2395 136.201 80.28 132.604 80.28V82.68C136.687 82.68 140.013 81.4805 142.405 78.9432L140.659 77.2968ZM132.604 80.28C129.008 80.28 126.361 79.2397 124.495 77.2903L122.761 78.9497C125.183 81.4803 128.52 82.68 132.604 82.68V80.28ZM124.507 77.303C122.662 75.3181 121.66 72.4474 121.66 68.52H119.26C119.26 72.8486 120.37 76.3779 122.749 78.937L124.507 77.303ZM121.66 68.52C121.66 64.5914 122.662 61.7415 124.501 59.7912L122.755 58.1448C120.37 60.6745 119.26 64.1925 119.26 68.52H121.66ZM124.501 59.7916C126.368 57.8131 129.013 56.76 132.604 56.76V54.36C128.515 54.36 125.176 55.5789 122.755 58.1444L124.501 59.7916ZM132.604 56.76C136.196 56.76 138.82 57.8133 140.653 59.785L142.411 58.151C140.02 55.5787 136.693 54.36 132.604 54.36V56.76ZM140.665 59.7977C142.532 61.7485 143.548 64.596 143.548 68.52H145.948C145.948 64.188 144.82 60.6675 142.399 58.1383L140.665 59.7977ZM143.548 68.52C143.548 72.4429 142.533 75.3112 140.659 77.2964L142.405 78.9436C144.819 76.3848 145.948 72.8531 145.948 68.52H143.548ZM152.882 78.36L151.716 78.6444L151.718 78.651L152.882 78.36ZM148.082 58.68L146.914 58.9579L146.916 58.9643L148.082 58.68ZM148.466 56.856L147.54 56.0932L147.526 56.1099L147.513 56.1271L148.466 56.856ZM153.458 56.808L152.685 57.7259L152.685 57.7259L153.458 56.808ZM154.562 58.728L153.378 58.9253L153.38 58.9356L154.562 58.728ZM157.538 75.672H158.738V75.5674L158.72 75.4644L157.538 75.672ZM157.682 75.672L156.501 75.4612L156.482 75.5658V75.672H157.682ZM160.706 58.728L159.531 58.4833L159.528 58.5002L159.525 58.5172L160.706 58.728ZM161.858 56.808L162.631 57.7259L162.631 57.7259L161.858 56.808ZM168.434 56.808L167.661 57.7259L167.661 57.7259L168.434 56.808ZM169.538 58.728L168.354 58.9253L168.357 58.9388L169.538 58.728ZM172.562 75.672H173.762V75.5658L173.743 75.4612L172.562 75.672ZM172.706 75.672L171.524 75.4644L171.506 75.5674V75.672H172.706ZM175.682 58.728L174.507 58.4833L174.503 58.5018L174.5 58.5204L175.682 58.728ZM176.834 56.808L177.607 57.7259L177.607 57.7259L176.834 56.808ZM181.586 56.856L180.633 57.5849L180.646 57.6021L180.66 57.6188L181.586 56.856ZM181.97 58.68L180.816 58.3503L180.81 58.3729L180.804 58.3957L181.97 58.68ZM177.17 78.36L178.334 78.651L178.336 78.6443L177.17 78.36ZM175.922 80.28L176.665 81.2219L176.672 81.217L175.922 80.28ZM169.346 80.232L170.119 79.3141L170.119 79.3141L169.346 80.232ZM168.194 78.312L167.015 78.5354L167.017 78.5461L167.019 78.5567L168.194 78.312ZM165.074 61.848H163.874V61.9607L163.895 62.0714L165.074 61.848ZM164.978 61.848L166.157 62.0714L166.178 61.9607V61.848H164.978ZM161.858 78.312L160.679 78.0886L160.676 78.1016L160.674 78.1147L161.858 78.312ZM154.13 80.28L153.38 81.217L153.395 81.2288L153.41 81.24L154.13 80.28ZM154.048 78.0757L149.248 58.3957L146.916 58.9643L151.716 78.6443L154.048 78.0757ZM149.249 58.4021C149.172 58.0773 149.224 57.8396 149.419 57.5849L147.513 56.1271C146.875 56.9604 146.672 57.9387 146.915 58.9579L149.249 58.4021ZM149.392 57.6188C149.625 57.3361 149.852 57.24 150.146 57.24V54.84C149.096 54.84 148.203 55.2879 147.54 56.0932L149.392 57.6188ZM150.146 57.24H151.346V54.84H150.146V57.24ZM151.346 57.24C151.865 57.24 152.295 57.3974 152.685 57.7259L154.231 55.8901C153.405 55.1946 152.427 54.84 151.346 54.84V57.24ZM152.685 57.7259C153.08 58.0583 153.298 58.445 153.378 58.9253L155.746 58.5307C155.57 57.475 155.052 56.5817 154.231 55.8901L152.685 57.7259ZM153.38 58.9356L156.356 75.8796L158.72 75.4644L155.744 58.5204L153.38 58.9356ZM156.338 75.672C156.338 75.873 156.389 76.2441 156.701 76.5565C157.014 76.8689 157.385 76.92 157.586 76.92V74.52C157.755 74.52 158.102 74.5631 158.398 74.8595C158.695 75.1559 158.738 75.503 158.738 75.672H156.338ZM157.586 76.92C157.679 76.92 157.928 76.9147 158.195 76.7813C158.345 76.7061 158.53 76.5755 158.674 76.3586C158.824 76.1342 158.882 75.89 158.882 75.672H156.482C156.482 75.47 156.536 75.2398 156.677 75.0274C156.814 74.8225 156.987 74.7019 157.121 74.6347C157.356 74.5173 157.557 74.52 157.586 74.52V76.92ZM158.863 75.8828L161.887 58.9388L159.525 58.5172L156.501 75.4612L158.863 75.8828ZM161.881 58.9727C161.985 58.4715 162.225 58.0673 162.631 57.7259L161.085 55.8901C160.274 56.5727 159.747 57.4485 159.531 58.4833L161.881 58.9727ZM162.631 57.7259C163.031 57.3891 163.447 57.24 163.922 57.24V54.84C162.86 54.84 161.901 55.2029 161.085 55.8901L162.631 57.7259ZM163.922 57.24H166.322V54.84H163.922V57.24ZM166.322 57.24C166.841 57.24 167.271 57.3974 167.661 57.7259L169.207 55.8901C168.381 55.1946 167.403 54.84 166.322 54.84V57.24ZM167.661 57.7259C168.056 58.0583 168.274 58.445 168.354 58.9253L170.722 58.5307C170.546 57.475 170.028 56.5817 169.207 55.8901L167.661 57.7259ZM168.357 58.9388L171.381 75.8828L173.743 75.4612L170.719 58.5172L168.357 58.9388ZM171.362 75.672C171.362 75.89 171.42 76.1343 171.569 76.3586C171.714 76.5755 171.899 76.7061 172.049 76.7813C172.316 76.9147 172.565 76.92 172.658 76.92V74.52C172.687 74.52 172.888 74.5173 173.123 74.6347C173.257 74.7019 173.43 74.8225 173.566 75.0274C173.708 75.2397 173.762 75.47 173.762 75.672H171.362ZM172.658 76.92C172.859 76.92 173.23 76.8689 173.542 76.5565C173.855 76.2441 173.906 75.873 173.906 75.672H171.506C171.506 75.503 171.549 75.1559 171.845 74.8595C172.142 74.5631 172.489 74.52 172.658 74.52V76.92ZM173.888 75.8796L176.864 58.9356L174.5 58.5204L171.524 75.4644L173.888 75.8796ZM176.857 58.9727C176.961 58.4715 177.201 58.0673 177.607 57.7259L176.061 55.8901C175.25 56.5727 174.723 57.4485 174.507 58.4833L176.857 58.9727ZM177.607 57.7259C178.007 57.3891 178.423 57.24 178.898 57.24V54.84C177.836 54.84 176.877 55.2029 176.061 55.8901L177.607 57.7259ZM178.898 57.24H179.906V54.84H178.898V57.24ZM179.906 57.24C180.248 57.24 180.451 57.3474 180.633 57.5849L182.539 56.1271C181.889 55.2766 180.971 54.84 179.906 54.84V57.24ZM180.66 57.6188C180.859 57.8613 180.899 58.0615 180.816 58.3503L183.124 59.0097C183.425 57.9544 183.209 56.9387 182.512 56.0932L180.66 57.6188ZM180.804 58.3957L176.004 78.0757L178.336 78.6443L183.136 58.9643L180.804 58.3957ZM176.006 78.069C175.88 78.5725 175.615 78.9889 175.172 79.343L176.672 81.217C177.509 80.5471 178.076 79.6835 178.334 78.651L176.006 78.069ZM175.178 79.3381C174.789 79.6451 174.35 79.8 173.81 79.8V82.2C174.87 82.2 175.838 81.8749 176.665 81.2219L175.178 79.3381ZM173.81 79.8H171.41V82.2H173.81V79.8ZM171.41 79.8C170.935 79.8 170.519 79.6509 170.119 79.3141L168.573 81.1499C169.389 81.8371 170.348 82.2 171.41 82.2V79.8ZM170.119 79.3141C169.713 78.9727 169.473 78.5685 169.369 78.0673L167.019 78.5567C167.235 79.5915 167.762 80.4673 168.573 81.1499L170.119 79.3141ZM169.373 78.0886L166.253 61.6246L163.895 62.0714L167.015 78.5354L169.373 78.0886ZM166.274 61.848C166.274 61.647 166.223 61.2759 165.91 60.9635C165.598 60.6511 165.227 60.6 165.026 60.6V63C164.857 63 164.51 62.9569 164.213 62.6605C163.917 62.3641 163.874 62.017 163.874 61.848H166.274ZM165.026 60.6C164.825 60.6 164.454 60.6511 164.141 60.9635C163.829 61.2759 163.778 61.647 163.778 61.848H166.178C166.178 62.017 166.135 62.3641 165.838 62.6605C165.542 62.9569 165.195 63 165.026 63V60.6ZM163.799 61.6246L160.679 78.0886L163.037 78.5354L166.157 62.0714L163.799 61.6246ZM160.674 78.1147C160.594 78.595 160.376 78.9817 159.981 79.3141L161.527 81.1499C162.348 80.4583 162.866 79.565 163.042 78.5093L160.674 78.1147ZM159.981 79.3141C159.591 79.6426 159.161 79.8 158.642 79.8V82.2C159.723 82.2 160.701 81.8454 161.527 81.1499L159.981 79.3141ZM158.642 79.8H156.242V82.2H158.642V79.8ZM156.242 79.8C155.745 79.8 155.291 79.6512 154.85 79.32L153.41 81.24C154.248 81.8688 155.203 82.2 156.242 82.2V79.8ZM154.88 79.343C154.437 78.9889 154.172 78.5725 154.046 78.069L151.718 78.651C151.976 79.6835 152.543 80.5471 153.38 81.217L154.88 79.343Z" fill="white"/>
<path d="M176 91.9927C175.072 90.6487 173.664 89.9767 171.776 89.9767C169.888 89.9767 168.464 90.6487 167.504 91.9927C166.576 93.3047 166.112 95.4007 166.112 98.2807C166.112 101.161 166.576 103.273 167.504 104.617C168.464 105.929 169.888 106.585 171.776 106.585C173.664 106.585 175.072 105.929 176 104.617C176.96 103.273 177.44 101.161 177.44 98.2807C177.44 95.4007 176.96 93.3047 176 91.9927ZM180.704 107.881C178.592 110.121 175.616 111.241 171.776 111.241C167.936 111.241 164.944 110.121 162.8 107.881C160.688 105.609 159.632 102.409 159.632 98.2807C159.632 94.1527 160.688 90.9687 162.8 88.7287C164.944 86.4567 167.936 85.3207 171.776 85.3207C175.616 85.3207 178.592 86.4567 180.704 88.7287C182.848 90.9687 183.92 94.1527 183.92 98.2807C183.92 102.409 182.848 105.609 180.704 107.881ZM196.699 111.241C193.883 111.241 191.835 110.473 190.555 108.937C189.275 107.369 188.635 104.729 188.635 101.017V88.5367C188.635 87.8007 188.907 87.1607 189.451 86.6167C189.995 86.0727 190.635 85.8007 191.371 85.8007H192.139C192.875 85.8007 193.515 86.0727 194.059 86.6167C194.603 87.1607 194.875 87.8007 194.875 88.5367V100.345C194.875 102.585 195.179 104.137 195.787 105.001C196.395 105.865 197.419 106.297 198.859 106.297C200.171 106.297 201.387 105.737 202.507 104.617C203.659 103.497 204.235 102.297 204.235 101.017V88.5367C204.235 87.8007 204.507 87.1607 205.051 86.6167C205.595 86.0727 206.235 85.8007 206.971 85.8007H207.931C208.667 85.8007 209.291 86.0727 209.802 86.6167C210.347 87.1607 210.619 87.8007 210.619 88.5367V108.025C210.619 108.761 210.347 109.401 209.802 109.945C209.291 110.489 208.667 110.761 207.931 110.761H207.307C206.539 110.761 205.883 110.505 205.339 109.993C204.827 109.449 204.555 108.793 204.523 108.025L204.475 107.689C204.475 107.657 204.459 107.641 204.427 107.641C204.395 107.641 204.363 107.657 204.331 107.689C202.155 110.057 199.611 111.241 196.699 111.241ZM219.97 110.761C219.234 110.761 218.594 110.489 218.05 109.945C217.506 109.401 217.234 108.761 217.234 108.025V88.5367C217.234 87.8007 217.506 87.1607 218.05 86.6167C218.594 86.0727 219.234 85.8007 219.97 85.8007H220.93C221.666 85.8007 222.306 86.0727 222.85 86.6167C223.394 87.1607 223.666 87.8007 223.666 88.5367V90.5527C223.666 90.5847 223.682 90.6007 223.714 90.6007C223.778 90.6007 223.81 90.5847 223.81 90.5527C224.738 89.2727 225.954 88.2327 227.458 87.4327C228.962 86.6007 230.61 86.0887 232.402 85.8967C233.074 85.8327 233.65 86.0567 234.13 86.5687C234.61 87.0487 234.85 87.6247 234.85 88.2967C234.85 88.9687 234.61 89.5447 234.13 90.0247C233.65 90.5047 233.074 90.7767 232.402 90.8407C226.738 91.2887 223.906 94.1687 223.906 99.4807V108.025C223.906 108.761 223.634 109.401 223.09 109.945C222.546 110.489 221.906 110.761 221.17 110.761H219.97Z" fill="#00F0FF"/>
<path d="M176 91.9927L175.013 92.6746L175.022 92.6881L175.032 92.7014L176 91.9927ZM167.504 91.9927L166.528 91.2952L166.524 91.2998L167.504 91.9927ZM167.504 104.617L166.517 105.299L166.526 105.312L166.536 105.325L167.504 104.617ZM176 104.617L175.024 103.919L175.02 103.924L176 104.617ZM180.704 107.881L179.831 107.057L179.831 107.058L180.704 107.881ZM162.8 107.881L161.921 108.698L161.927 108.704L161.933 108.71L162.8 107.881ZM162.8 88.7287L161.927 87.9052L161.927 87.9055L162.8 88.7287ZM180.704 88.7287L179.825 89.5458L179.831 89.5522L179.837 89.5585L180.704 88.7287ZM176.987 91.3109C175.798 89.5881 173.987 88.7767 171.776 88.7767V91.1767C173.341 91.1767 174.346 91.7094 175.013 92.6746L176.987 91.3109ZM171.776 88.7767C169.564 88.7767 167.747 89.5873 166.528 91.2953L168.48 92.6902C169.181 91.7102 170.212 91.1767 171.776 91.1767V88.7767ZM166.524 91.2998C165.378 92.9201 164.912 95.3247 164.912 98.2807H167.312C167.312 95.4768 167.774 93.6894 168.484 92.6857L166.524 91.2998ZM164.912 98.2807C164.912 101.241 165.38 103.652 166.517 105.299L168.491 103.935C167.772 102.893 167.312 101.081 167.312 98.2807H164.912ZM166.536 105.325C167.76 106.999 169.576 107.785 171.776 107.785V105.385C170.2 105.385 169.168 104.859 168.472 103.908L166.536 105.325ZM171.776 107.785C173.976 107.785 175.785 106.998 176.98 105.31L175.02 103.924C174.359 104.859 173.352 105.385 171.776 105.385V107.785ZM176.976 105.314C178.155 103.664 178.64 101.246 178.64 98.2807H176.24C176.24 101.076 175.765 102.881 175.024 103.919L176.976 105.314ZM178.64 98.2807C178.64 95.3196 178.156 92.9077 176.968 91.2841L175.032 92.7014C175.764 93.7017 176.24 95.4819 176.24 98.2807H178.64ZM179.831 107.058C177.999 109 175.373 110.041 171.776 110.041V112.441C175.859 112.441 179.185 111.241 181.577 108.704L179.831 107.058ZM171.776 110.041C168.18 110.041 165.533 109 163.667 107.051L161.933 108.71C164.355 111.241 167.692 112.441 171.776 112.441V110.041ZM163.679 107.064C161.834 105.079 160.832 102.208 160.832 98.2807H158.432C158.432 102.609 159.542 106.139 161.921 108.698L163.679 107.064ZM160.832 98.2807C160.832 94.3522 161.834 91.5022 163.673 89.552L161.927 87.9055C159.542 90.4352 158.432 93.9533 158.432 98.2807H160.832ZM163.673 89.5523C165.54 87.5738 168.185 86.5207 171.776 86.5207V84.1207C167.687 84.1207 164.348 85.3396 161.927 87.9052L163.673 89.5523ZM171.776 86.5207C175.368 86.5207 177.992 87.574 179.825 89.5458L181.583 87.9117C179.192 85.3395 175.864 84.1207 171.776 84.1207V86.5207ZM179.837 89.5585C181.704 91.5092 182.72 94.3567 182.72 98.2807H185.12C185.12 93.9488 183.992 90.4282 181.571 87.899L179.837 89.5585ZM182.72 98.2807C182.72 102.204 181.705 105.072 179.831 107.057L181.577 108.704C183.991 106.146 185.12 102.614 185.12 98.2807H182.72ZM190.555 108.937L189.625 109.696L189.633 109.705L190.555 108.937ZM189.451 86.6167L190.299 87.4653L190.299 87.4653L189.451 86.6167ZM194.059 86.6167L193.21 87.4653L193.21 87.4653L194.059 86.6167ZM195.787 105.001L196.768 104.31L196.768 104.31L195.787 105.001ZM202.507 104.617L201.67 103.756L201.664 103.762L201.658 103.768L202.507 104.617ZM205.051 86.6167L205.899 87.4653L205.899 87.4653L205.051 86.6167ZM209.802 86.6167L208.929 87.4392L208.941 87.4524L208.954 87.4653L209.802 86.6167ZM209.802 109.945L208.954 109.096L208.941 109.109L208.929 109.122L209.802 109.945ZM205.339 109.993L204.465 110.815L204.49 110.842L204.516 110.867L205.339 109.993ZM204.523 108.025L205.721 107.975L205.719 107.915L205.71 107.855L204.523 108.025ZM204.475 107.689H203.275V107.774L203.287 107.858L204.475 107.689ZM204.331 107.689L203.482 106.84L203.464 106.858L203.447 106.877L204.331 107.689ZM196.699 110.041C194.087 110.041 192.446 109.333 191.476 108.169L189.633 109.705C191.223 111.613 193.678 112.441 196.699 112.441V110.041ZM191.484 108.178C190.475 106.941 189.835 104.655 189.835 101.017H187.435C187.435 104.802 188.074 107.796 189.625 109.696L191.484 108.178ZM189.835 101.017V88.5367H187.435V101.017H189.835ZM189.835 88.5367C189.835 88.1347 189.969 87.7956 190.299 87.4653L188.602 85.7682C187.844 86.5259 187.435 87.4668 187.435 88.5367H189.835ZM190.299 87.4653C190.629 87.135 190.968 87.0007 191.371 87.0007V84.6007C190.301 84.6007 189.36 85.0105 188.602 85.7682L190.299 87.4653ZM191.371 87.0007H192.139V84.6007H191.371V87.0007ZM192.139 87.0007C192.541 87.0007 192.88 87.135 193.21 87.4653L194.907 85.7682C194.149 85.0105 193.208 84.6007 192.139 84.6007V87.0007ZM193.21 87.4653C193.54 87.7956 193.675 88.1347 193.675 88.5367H196.075C196.075 87.4668 195.665 86.5259 194.907 85.7682L193.21 87.4653ZM193.675 88.5367V100.345H196.075V88.5367H193.675ZM193.675 100.345C193.675 102.609 193.965 104.498 194.805 105.691L196.768 104.31C196.392 103.776 196.075 102.561 196.075 100.345H193.675ZM194.805 105.691C195.714 106.983 197.182 107.497 198.859 107.497V105.097C197.655 105.097 197.075 104.747 196.768 104.31L194.805 105.691ZM198.859 107.497C200.553 107.497 202.06 106.76 203.355 105.465L201.658 103.768C200.713 104.713 199.788 105.097 198.859 105.097V107.497ZM203.343 105.477C204.665 104.192 205.435 102.699 205.435 101.017H203.035C203.035 101.894 202.652 102.801 201.67 103.756L203.343 105.477ZM205.435 101.017V88.5367H203.035V101.017H205.435ZM205.435 88.5367C205.435 88.1347 205.569 87.7956 205.899 87.4653L204.202 85.7682C203.444 86.5259 203.035 87.4668 203.035 88.5367H205.435ZM205.899 87.4653C206.229 87.135 206.568 87.0007 206.971 87.0007V84.6007C205.901 84.6007 204.96 85.0105 204.202 85.7682L205.899 87.4653ZM206.971 87.0007H207.931V84.6007H206.971V87.0007ZM207.931 87.0007C208.33 87.0007 208.64 87.132 208.929 87.4392L210.676 85.7943C209.941 85.0135 209.003 84.6007 207.931 84.6007V87.0007ZM208.954 87.4653C209.284 87.7956 209.419 88.1347 209.419 88.5367H211.819C211.819 87.4668 211.409 86.5259 210.651 85.7682L208.954 87.4653ZM209.419 88.5367V108.025H211.819V88.5367H209.419ZM209.419 108.025C209.419 108.427 209.284 108.766 208.954 109.096L210.651 110.793C211.409 110.036 211.819 109.095 211.819 108.025H209.419ZM208.929 109.122C208.64 109.429 208.33 109.561 207.931 109.561V111.961C209.003 111.961 209.941 111.548 210.676 110.767L208.929 109.122ZM207.931 109.561H207.307V111.961H207.931V109.561ZM207.307 109.561C206.835 109.561 206.476 109.415 206.161 109.119L204.516 110.867C205.289 111.595 206.242 111.961 207.307 111.961V109.561ZM206.212 109.17C205.904 108.843 205.742 108.464 205.721 107.975L203.324 108.075C203.367 109.122 203.749 110.055 204.465 110.815L206.212 109.17ZM205.71 107.855L205.662 107.519L203.287 107.858L203.335 108.194L205.71 107.855ZM205.675 107.689C205.675 107.488 205.623 107.117 205.311 106.804C204.999 106.492 204.627 106.441 204.427 106.441V108.841C204.258 108.841 203.91 108.798 203.614 108.501C203.318 108.205 203.275 107.858 203.275 107.689H205.675ZM204.427 106.441C203.964 106.441 203.645 106.677 203.482 106.84L205.179 108.537C205.08 108.636 204.825 108.841 204.427 108.841V106.441ZM203.447 106.877C201.472 109.026 199.238 110.041 196.699 110.041V112.441C199.983 112.441 202.837 111.087 205.214 108.501L203.447 106.877ZM218.05 109.945L217.201 110.793L217.201 110.793L218.05 109.945ZM218.05 86.6167L218.898 87.4653L218.898 87.4653L218.05 86.6167ZM222.85 86.6167L222.001 87.4653L222.001 87.4653L222.85 86.6167ZM223.81 90.5527L222.838 89.8484L222.61 90.1635V90.5527H223.81ZM227.458 87.4327L228.021 88.4922L228.03 88.4876L228.039 88.4828L227.458 87.4327ZM232.402 85.8967L232.288 84.7021L232.274 84.7036L232.402 85.8967ZM234.13 86.5687L233.254 87.3895L233.268 87.4036L233.281 87.4173L234.13 86.5687ZM234.13 90.0247L234.978 90.8733L234.978 90.8733L234.13 90.0247ZM232.402 90.8407L232.496 92.037L232.506 92.0362L232.516 92.0353L232.402 90.8407ZM223.09 109.945L223.938 110.793L223.938 110.793L223.09 109.945ZM219.97 109.561C219.568 109.561 219.229 109.427 218.898 109.096L217.201 110.793C217.959 111.551 218.9 111.961 219.97 111.961V109.561ZM218.898 109.096C218.568 108.766 218.434 108.427 218.434 108.025H216.034C216.034 109.095 216.444 110.036 217.201 110.793L218.898 109.096ZM218.434 108.025V88.5367H216.034V108.025H218.434ZM218.434 88.5367C218.434 88.1347 218.568 87.7956 218.898 87.4653L217.201 85.7682C216.444 86.5259 216.034 87.4668 216.034 88.5367H218.434ZM218.898 87.4653C219.229 87.135 219.568 87.0007 219.97 87.0007V84.6007C218.9 84.6007 217.959 85.0105 217.201 85.7682L218.898 87.4653ZM219.97 87.0007H220.93V84.6007H219.97V87.0007ZM220.93 87.0007C221.332 87.0007 221.671 87.135 222.001 87.4653L223.698 85.7682C222.941 85.0105 222 84.6007 220.93 84.6007V87.0007ZM222.001 87.4653C222.332 87.7956 222.466 88.1347 222.466 88.5367H224.866C224.866 87.4668 224.456 86.5259 223.698 85.7682L222.001 87.4653ZM222.466 88.5367V90.5527H224.866V88.5367H222.466ZM222.466 90.5527C222.466 90.7537 222.517 91.1248 222.829 91.4373C223.142 91.7497 223.513 91.8007 223.714 91.8007V89.4007C223.883 89.4007 224.23 89.4438 224.526 89.7402C224.823 90.0366 224.866 90.3838 224.866 90.5527H222.466ZM223.714 91.8007C223.807 91.8007 224.056 91.7954 224.323 91.6621C224.473 91.5869 224.658 91.4563 224.802 91.2394C224.952 91.015 225.01 90.7707 225.01 90.5527H222.61C222.61 90.3508 222.664 90.1205 222.805 89.9081C222.942 89.7032 223.115 89.5826 223.249 89.5154C223.484 89.3981 223.685 89.4007 223.714 89.4007V91.8007ZM224.781 91.2571C225.594 90.1362 226.666 89.2132 228.021 88.4922L226.894 86.3733C225.242 87.2523 223.882 88.4093 222.838 89.8484L224.781 91.2571ZM228.039 88.4828C229.396 87.7319 230.889 87.2657 232.53 87.0899L232.274 84.7036C230.331 84.9118 228.528 85.4695 226.877 86.3827L228.039 88.4828ZM232.516 87.0913C232.801 87.0642 233.017 87.136 233.254 87.3895L235.005 85.748C234.283 84.9775 233.347 84.6013 232.288 84.7021L232.516 87.0913ZM233.281 87.4173C233.539 87.6748 233.65 87.9466 233.65 88.2967H236.05C236.05 87.3029 235.681 86.4227 234.978 85.7202L233.281 87.4173ZM233.65 88.2967C233.65 88.6469 233.539 88.9187 233.281 89.1762L234.978 90.8733C235.681 90.1708 236.05 89.2906 236.05 88.2967H233.65ZM233.281 89.1762C232.997 89.4602 232.681 89.6088 232.288 89.6461L232.516 92.0353C233.467 91.9447 234.302 91.5493 234.978 90.8733L233.281 89.1762ZM232.307 89.6445C229.303 89.8821 226.862 90.7791 225.174 92.4954C223.475 94.2237 222.706 96.6127 222.706 99.4807H225.106C225.106 97.0368 225.753 95.3298 226.886 94.1781C228.03 93.0144 229.836 92.2474 232.496 92.037L232.307 89.6445ZM222.706 99.4807V108.025H225.106V99.4807H222.706ZM222.706 108.025C222.706 108.427 222.572 108.766 222.241 109.096L223.938 110.793C224.696 110.036 225.106 109.095 225.106 108.025H222.706ZM222.241 109.096C221.911 109.427 221.572 109.561 221.17 109.561V111.961C222.24 111.961 223.181 111.551 223.938 110.793L222.241 109.096ZM221.17 109.561H219.97V111.961H221.17V109.561Z" fill="white"/>
<path d="M206.64 135.975C205.659 135.975 204.805 135.613 204.08 134.887C203.397 134.162 203.056 133.309 203.056 132.327V92.9035C203.056 91.9221 203.397 91.0688 204.08 90.3435C204.805 89.6181 205.659 89.2555 206.64 89.2555H208.368C209.349 89.2555 210.203 89.6181 210.928 90.3435C211.653 91.0688 212.016 91.9221 212.016 92.9035V107.431C212.016 107.773 212.187 107.943 212.528 107.943H228.528C228.869 107.943 229.04 107.773 229.04 107.431V92.9035C229.04 91.9221 229.403 91.0688 230.128 90.3435C230.853 89.6181 231.707 89.2555 232.688 89.2555H234.416C235.397 89.2555 236.229 89.6181 236.912 90.3435C237.637 91.0688 238 91.9221 238 92.9035V132.327C238 133.309 237.637 134.162 236.912 134.887C236.229 135.613 235.397 135.975 234.416 135.975H232.688C231.707 135.975 230.853 135.613 230.128 134.887C229.403 134.162 229.04 133.309 229.04 132.327V115.367C229.04 114.983 228.869 114.791 228.528 114.791H212.528C212.187 114.791 212.016 114.983 212.016 115.367V132.327C212.016 133.309 211.653 134.162 210.928 134.887C210.203 135.613 209.349 135.975 208.368 135.975H206.64ZM264.183 97.1915L258.551 117.287C258.508 117.415 258.529 117.543 258.615 117.671C258.7 117.799 258.807 117.863 258.935 117.863H269.559C269.687 117.863 269.793 117.799 269.879 117.671C269.964 117.543 269.985 117.415 269.943 117.287L264.311 97.1915C264.311 97.1488 264.289 97.1275 264.247 97.1275C264.204 97.1275 264.183 97.1488 264.183 97.1915ZM247.607 135.975C246.711 135.975 246.007 135.613 245.495 134.887C244.983 134.162 244.876 133.373 245.174 132.519L258.423 92.7115C258.807 91.6875 259.425 90.8555 260.279 90.2155C261.175 89.5755 262.156 89.2555 263.223 89.2555H265.527C266.636 89.2555 267.617 89.5755 268.471 90.2155C269.367 90.8555 269.985 91.6875 270.327 92.7115L283.575 132.519C283.873 133.373 283.767 134.162 283.255 134.887C282.743 135.613 282.039 135.975 281.143 135.975H278.839C277.815 135.975 276.855 135.655 275.958 135.015C275.105 134.333 274.529 133.479 274.231 132.455L272.183 125.223C272.14 124.882 271.905 124.711 271.479 124.711H257.015C256.631 124.711 256.396 124.882 256.311 125.223L254.263 132.455C254.007 133.479 253.431 134.333 252.535 135.015C251.681 135.655 250.721 135.975 249.655 135.975H247.607ZM307.066 136.615C300.324 136.615 294.97 134.546 291.002 130.407C287.076 126.226 285.114 120.295 285.114 112.615C285.114 105.021 287.012 99.1328 290.81 94.9515C294.65 90.7275 300.004 88.6155 306.874 88.6155C310.031 88.6155 312.676 88.8075 314.81 89.1915C315.834 89.3621 316.687 89.8741 317.37 90.7275C318.052 91.5808 318.394 92.5408 318.394 93.6075V94.1195C318.394 95.0155 318.01 95.7195 317.242 96.2315C316.516 96.7435 315.727 96.8928 314.874 96.6795C312.783 96.1248 310.436 95.8475 307.834 95.8475C303.61 95.8475 300.282 97.2981 297.85 100.199C295.46 103.101 294.266 107.239 294.266 112.615C294.266 117.949 295.503 122.087 297.978 125.031C300.495 127.933 303.844 129.383 308.026 129.383C310.842 129.383 313.252 129.127 315.257 128.615C316.111 128.402 316.9 128.551 317.626 129.063C318.394 129.575 318.778 130.279 318.778 131.175V131.623C318.778 132.69 318.436 133.65 317.754 134.503C317.114 135.314 316.26 135.805 315.194 135.975C312.762 136.402 310.052 136.615 307.066 136.615ZM332.14 135.975C331.159 135.975 330.305 135.613 329.58 134.887C328.897 134.162 328.556 133.309 328.556 132.327V92.9035C328.556 91.9221 328.897 91.0688 329.58 90.3435C330.305 89.6181 331.159 89.2555 332.14 89.2555H333.868C334.849 89.2555 335.703 89.6181 336.428 90.3435C337.153 91.0688 337.516 91.9221 337.516 92.9035V109.479C337.516 109.522 337.537 109.543 337.58 109.543C337.623 109.543 337.644 109.522 337.644 109.479L350.508 92.1995C351.916 90.2368 353.836 89.2555 356.268 89.2555H359.468C360.193 89.2555 360.727 89.5968 361.068 90.2795C361.409 90.9621 361.345 91.5808 360.876 92.1355L346.156 111.207C345.943 111.506 345.943 111.805 346.156 112.103L361.58 133.031C362.049 133.629 362.113 134.269 361.772 134.951C361.431 135.634 360.876 135.975 360.108 135.975H356.908C354.476 135.975 352.577 134.994 351.212 133.031L337.644 113.831C337.644 113.789 337.623 113.767 337.58 113.767C337.537 113.767 337.516 113.789 337.516 113.831V132.327C337.516 133.309 337.153 134.162 336.428 134.887C335.703 135.613 334.849 135.975 333.868 135.975H332.14Z" fill="#9F00EA" fill-opacity="0.8"/>
<path d="M204.08 134.887L203.206 135.71L203.219 135.723L203.231 135.736L204.08 134.887ZM204.08 90.3435L203.231 89.4949L203.219 89.5078L203.206 89.521L204.08 90.3435ZM210.928 90.3435L211.777 89.4949L211.777 89.4949L210.928 90.3435ZM230.128 90.3435L229.279 89.4949L229.279 89.4949L230.128 90.3435ZM236.912 90.3435L236.038 91.1659L236.051 91.1791L236.063 91.192L236.912 90.3435ZM236.912 134.887L236.063 134.039L236.051 134.052L236.038 134.065L236.912 134.887ZM206.64 134.775C205.993 134.775 205.44 134.551 204.929 134.039L203.231 135.736C204.17 136.675 205.325 137.175 206.64 137.175V134.775ZM204.954 134.065C204.477 133.559 204.256 132.998 204.256 132.327H201.856C201.856 133.62 202.317 134.766 203.206 135.71L204.954 134.065ZM204.256 132.327V92.9035H201.856V132.327H204.256ZM204.256 92.9035C204.256 92.2329 204.477 91.6724 204.954 91.1659L203.206 89.521C202.317 90.4652 201.856 91.6114 201.856 92.9035H204.256ZM204.929 91.192C205.44 90.6803 205.993 90.4555 206.64 90.4555V88.0555C205.325 88.0555 204.17 88.5559 203.231 89.4949L204.929 91.192ZM206.64 90.4555H208.368V88.0555H206.64V90.4555ZM208.368 90.4555C209.015 90.4555 209.568 90.6803 210.079 91.192L211.777 89.4949C210.838 88.5559 209.683 88.0555 208.368 88.0555V90.4555ZM210.079 91.192C210.591 91.7036 210.816 92.2561 210.816 92.9035H213.216C213.216 91.5882 212.716 90.434 211.777 89.4949L210.079 91.192ZM210.816 92.9035V107.431H213.216V92.9035H210.816ZM210.816 107.431C210.816 107.787 210.906 108.274 211.295 108.664C211.685 109.054 212.172 109.143 212.528 109.143V106.743C212.542 106.743 212.773 106.748 212.993 106.967C213.212 107.186 213.216 107.417 213.216 107.431H210.816ZM212.528 109.143H228.528V106.743H212.528V109.143ZM228.528 109.143C228.884 109.143 229.371 109.054 229.761 108.664C230.15 108.274 230.24 107.787 230.24 107.431H227.84C227.84 107.417 227.844 107.186 228.063 106.967C228.283 106.748 228.514 106.743 228.528 106.743V109.143ZM230.24 107.431V92.9035H227.84V107.431H230.24ZM230.24 92.9035C230.24 92.2561 230.465 91.7036 230.977 91.192L229.279 89.4949C228.34 90.434 227.84 91.5882 227.84 92.9035H230.24ZM230.977 91.192C231.488 90.6803 232.041 90.4555 232.688 90.4555V88.0555C231.373 88.0555 230.218 88.5559 229.279 89.4949L230.977 91.192ZM232.688 90.4555H234.416V88.0555H232.688V90.4555ZM234.416 90.4555C235.061 90.4555 235.578 90.6774 236.038 91.1659L237.786 89.521C236.88 88.5588 235.734 88.0555 234.416 88.0555V90.4555ZM236.063 91.192C236.575 91.7036 236.8 92.2561 236.8 92.9035H239.2C239.2 91.5882 238.7 90.434 237.761 89.4949L236.063 91.192ZM236.8 92.9035V132.327H239.2V92.9035H236.8ZM236.8 132.327C236.8 132.975 236.575 133.527 236.063 134.039L237.761 135.736C238.7 134.797 239.2 133.643 239.2 132.327H236.8ZM236.038 134.065C235.578 134.554 235.061 134.775 234.416 134.775V137.175C235.734 137.175 236.88 136.672 237.786 135.71L236.038 134.065ZM234.416 134.775H232.688V137.175H234.416V134.775ZM232.688 134.775C232.041 134.775 231.488 134.551 230.977 134.039L229.279 135.736C230.218 136.675 231.373 137.175 232.688 137.175V134.775ZM230.977 134.039C230.465 133.527 230.24 132.975 230.24 132.327H227.84C227.84 133.643 228.34 134.797 229.279 135.736L230.977 134.039ZM230.24 132.327V115.367H227.84V132.327H230.24ZM230.24 115.367C230.24 115.023 230.167 114.541 229.809 114.138C229.427 113.709 228.923 113.591 228.528 113.591V115.991C228.475 115.991 228.226 115.97 228.015 115.733C227.828 115.522 227.84 115.328 227.84 115.367H230.24ZM228.528 113.591H212.528V115.991H228.528V113.591ZM212.528 113.591C212.133 113.591 211.629 113.709 211.247 114.138C210.889 114.541 210.816 115.023 210.816 115.367H213.216C213.216 115.328 213.228 115.522 213.041 115.733C212.83 115.97 212.581 115.991 212.528 115.991V113.591ZM210.816 115.367V132.327H213.216V115.367H210.816ZM210.816 132.327C210.816 132.975 210.591 133.527 210.079 134.039L211.777 135.736C212.716 134.797 213.216 133.643 213.216 132.327H210.816ZM210.079 134.039C209.568 134.551 209.015 134.775 208.368 134.775V137.175C209.683 137.175 210.838 136.675 211.777 135.736L210.079 134.039ZM208.368 134.775H206.64V137.175H208.368V134.775ZM264.183 97.1915L265.338 97.5153L265.383 97.3564V97.1915H264.183ZM258.551 117.287L259.689 117.667L259.698 117.639L259.706 117.611L258.551 117.287ZM258.615 117.671L259.613 117.006L259.613 117.006L258.615 117.671ZM269.943 117.287L268.787 117.611L268.795 117.639L268.804 117.667L269.943 117.287ZM264.311 97.1915H263.111V97.3564L263.155 97.5153L264.311 97.1915ZM245.495 134.887L246.475 134.195L246.475 134.195L245.495 134.887ZM245.174 132.519L246.307 132.916L246.31 132.907L246.313 132.898L245.174 132.519ZM258.423 92.7115L257.299 92.2901L257.291 92.3112L257.284 92.3325L258.423 92.7115ZM260.279 90.2155L259.581 89.239L259.57 89.2471L259.559 89.2555L260.279 90.2155ZM268.471 90.2155L267.751 91.1755L267.762 91.1838L267.773 91.1919L268.471 90.2155ZM270.327 92.7115L271.465 92.3325L271.465 92.332L270.327 92.7115ZM283.575 132.519L282.436 132.898L282.439 132.907L282.442 132.916L283.575 132.519ZM283.255 134.887L282.274 134.195L282.274 134.195L283.255 134.887ZM275.958 135.015L275.209 135.953L275.234 135.973L275.261 135.992L275.958 135.015ZM274.231 132.455L273.076 132.782L273.079 132.791L274.231 132.455ZM272.183 125.223L270.992 125.372L271.003 125.463L271.028 125.55L272.183 125.223ZM256.311 125.223L257.465 125.55L257.47 125.533L257.475 125.515L256.311 125.223ZM254.263 132.455L253.108 132.128L253.103 132.146L253.098 132.164L254.263 132.455ZM252.535 135.015L253.255 135.975L253.262 135.97L252.535 135.015ZM263.027 96.8676L257.395 116.964L259.706 117.611L265.338 97.5153L263.027 96.8676ZM257.412 116.908C257.235 117.44 257.358 117.95 257.616 118.337L259.613 117.006C259.647 117.057 259.696 117.151 259.718 117.282C259.741 117.419 259.727 117.553 259.689 117.667L257.412 116.908ZM257.616 118.337C257.872 118.722 258.32 119.063 258.935 119.063V116.663C259.081 116.663 259.237 116.703 259.376 116.786C259.507 116.865 259.58 116.956 259.613 117.006L257.616 118.337ZM258.935 119.063H269.559V116.663H258.935V119.063ZM269.559 119.063C270.173 119.063 270.621 118.722 270.877 118.337L268.88 117.006C268.913 116.956 268.986 116.865 269.117 116.786C269.256 116.703 269.412 116.663 269.559 116.663V119.063ZM270.877 118.337C271.135 117.95 271.258 117.44 271.081 116.908L268.804 117.667C268.766 117.553 268.752 117.419 268.775 117.282C268.797 117.151 268.846 117.057 268.88 117.006L270.877 118.337ZM271.098 116.964L265.466 96.8676L263.155 97.5153L268.787 117.611L271.098 116.964ZM265.511 97.1915C265.511 96.9852 265.458 96.61 265.143 96.295C264.828 95.9799 264.453 95.9275 264.247 95.9275V98.3275C264.083 98.3275 263.74 98.2857 263.446 97.992C263.152 97.6982 263.111 97.3551 263.111 97.1915H265.511ZM264.247 95.9275C264.04 95.9275 263.665 95.9799 263.35 96.2949C263.035 96.61 262.983 96.9852 262.983 97.1915H265.383C265.383 97.3551 265.341 97.6982 265.047 97.992C264.753 98.2857 264.41 98.3275 264.247 98.3275V95.9275ZM247.607 134.775C247.096 134.775 246.76 134.599 246.475 134.195L244.514 135.579C245.253 136.627 246.325 137.175 247.607 137.175V134.775ZM246.475 134.195C246.191 133.794 246.134 133.411 246.307 132.916L244.042 132.123C243.618 133.335 243.774 134.53 244.514 135.579L246.475 134.195ZM246.313 132.898L259.561 93.0904L257.284 92.3325L244.036 132.141L246.313 132.898ZM259.546 93.1328C259.852 92.3175 260.333 91.6745 260.999 91.1755L259.559 89.2555C258.517 90.0365 257.761 91.0575 257.299 92.2901L259.546 93.1328ZM260.976 91.1919C261.675 90.6923 262.414 90.4555 263.223 90.4555V88.0555C261.897 88.0555 260.674 88.4586 259.581 89.239L260.976 91.1919ZM263.223 90.4555H265.527V88.0555H263.223V90.4555ZM265.527 90.4555C266.387 90.4555 267.114 90.6978 267.751 91.1755L269.191 89.2555C268.121 88.4531 266.884 88.0555 265.527 88.0555V90.4555ZM267.773 91.1919C268.467 91.6877 268.929 92.3127 269.188 93.0909L271.465 92.332C271.042 91.0622 270.266 90.0232 269.168 89.239L267.773 91.1919ZM269.188 93.0904L282.436 132.898L284.713 132.141L271.465 92.3325L269.188 93.0904ZM282.442 132.916C282.615 133.411 282.558 133.794 282.274 134.195L284.235 135.579C284.975 134.53 285.131 133.335 284.707 132.123L282.442 132.916ZM282.274 134.195C281.989 134.599 281.653 134.775 281.143 134.775V137.175C282.424 137.175 283.496 136.627 284.235 135.579L282.274 134.195ZM281.143 134.775H278.839V137.175H281.143V134.775ZM278.839 134.775C278.084 134.775 277.365 134.545 276.656 134.039L275.261 135.992C276.344 136.766 277.545 137.175 278.839 137.175V134.775ZM276.708 134.078C276.043 133.546 275.61 132.9 275.383 132.119L273.079 132.791C273.448 134.059 274.168 135.12 275.209 135.953L276.708 134.078ZM275.385 132.128L273.337 124.896L271.028 125.55L273.076 132.782L275.385 132.128ZM273.373 125.075C273.319 124.641 273.116 124.185 272.68 123.869C272.282 123.579 271.832 123.511 271.479 123.511V125.911C271.552 125.911 271.433 125.929 271.269 125.81C271.182 125.747 271.11 125.664 271.059 125.571C271.011 125.482 270.996 125.409 270.992 125.372L273.373 125.075ZM271.479 123.511H257.015V125.911H271.479V123.511ZM257.015 123.511C256.65 123.511 256.224 123.593 255.845 123.869C255.454 124.153 255.242 124.549 255.146 124.932L257.475 125.515C257.464 125.557 257.412 125.696 257.256 125.81C257.111 125.915 256.995 125.911 257.015 125.911V123.511ZM255.156 124.896L253.108 132.128L255.417 132.782L257.465 125.55L255.156 124.896ZM253.098 132.164C252.913 132.906 252.502 133.532 251.807 134.061L253.262 135.97C254.359 135.134 255.1 134.053 255.427 132.747L253.098 132.164ZM251.814 134.055C251.169 134.54 250.462 134.775 249.655 134.775V137.175C250.981 137.175 252.193 136.771 253.255 135.975L251.814 134.055ZM249.655 134.775H247.607V137.175H249.655V134.775ZM291.002 130.407L290.127 131.229L290.135 131.238L291.002 130.407ZM290.81 94.9515L289.922 94.1443L289.921 94.1447L290.81 94.9515ZM314.81 89.1915L314.597 90.3725L314.605 90.3739L314.612 90.3751L314.81 89.1915ZM317.37 90.7275L318.307 89.9778L318.307 89.9778L317.37 90.7275ZM317.242 96.2315L316.576 95.233L316.563 95.2419L316.549 95.2511L317.242 96.2315ZM314.874 96.6795L314.566 97.8393L314.574 97.8415L314.582 97.8436L314.874 96.6795ZM297.85 100.199L296.93 99.4286L296.923 99.4366L297.85 100.199ZM297.978 125.031L297.059 125.804L297.065 125.811L297.071 125.818L297.978 125.031ZM315.257 128.615L314.966 127.451L314.961 127.453L315.257 128.615ZM317.626 129.063L316.933 130.044L316.947 130.053L316.96 130.062L317.626 129.063ZM317.754 134.503L316.816 133.754L316.812 133.76L317.754 134.503ZM315.194 135.975L315.004 134.791L314.995 134.792L314.986 134.794L315.194 135.975ZM307.066 135.415C300.589 135.415 295.57 133.438 291.868 129.577L290.135 131.238C294.369 135.654 300.059 137.815 307.066 137.815V135.415ZM291.876 129.586C288.223 125.694 286.314 120.096 286.314 112.615H283.914C283.914 120.495 285.93 126.758 290.127 131.229L291.876 129.586ZM286.314 112.615C286.314 105.215 288.162 99.652 291.698 95.7582L289.921 94.1447C285.863 98.6136 283.914 104.827 283.914 112.615H286.314ZM291.697 95.7587C295.264 91.8352 300.268 89.8155 306.874 89.8155V87.4155C299.741 87.4155 294.035 89.6197 289.922 94.1443L291.697 95.7587ZM306.874 89.8155C309.989 89.8155 312.558 90.0054 314.597 90.3725L315.022 88.0104C312.795 87.6095 310.073 87.4155 306.874 87.4155V89.8155ZM314.612 90.3751C315.328 90.4945 315.924 90.8413 316.432 91.4771L318.307 89.9778C317.45 88.9069 316.339 88.2298 315.007 88.0078L314.612 90.3751ZM316.432 91.4771C316.949 92.1233 317.194 92.8204 317.194 93.6075H319.594C319.594 92.2612 319.155 91.0383 318.307 89.9778L316.432 91.4771ZM317.194 93.6075V94.1195H319.594V93.6075H317.194ZM317.194 94.1195C317.194 94.5999 317.022 94.9355 316.576 95.233L317.907 97.2299C318.997 96.5034 319.594 95.431 319.594 94.1195H317.194ZM316.549 95.2511C316.106 95.5639 315.675 95.643 315.165 95.5153L314.582 97.8436C315.778 98.1426 316.926 97.9231 317.934 97.2118L316.549 95.2511ZM315.181 95.5196C312.972 94.9335 310.52 94.6475 307.834 94.6475V97.0475C310.353 97.0475 312.593 97.3161 314.566 97.8393L315.181 95.5196ZM307.834 94.6475C303.301 94.6475 299.618 96.2217 296.93 99.4286L298.769 100.97C300.945 98.3746 303.918 97.0475 307.834 97.0475V94.6475ZM296.923 99.4366C294.294 102.629 293.066 107.078 293.066 112.615H295.466C295.466 107.4 296.626 103.573 298.776 100.962L296.923 99.4366ZM293.066 112.615C293.066 118.123 294.343 122.573 297.059 125.804L298.896 124.259C296.663 121.602 295.466 117.775 295.466 112.615H293.066ZM297.071 125.818C299.838 129.007 303.531 130.583 308.026 130.583V128.183C304.157 128.183 301.151 126.859 298.884 124.245L297.071 125.818ZM308.026 130.583C310.908 130.583 313.424 130.322 315.554 129.778L314.961 127.453C313.08 127.933 310.775 128.183 308.026 128.183V130.583ZM315.549 129.78C316.059 129.652 316.49 129.731 316.933 130.044L318.318 128.083C317.31 127.372 316.162 127.152 314.966 127.451L315.549 129.78ZM316.96 130.062C317.406 130.359 317.578 130.695 317.578 131.175H319.978C319.978 129.864 319.381 128.792 318.291 128.065L316.96 130.062ZM317.578 131.175V131.623H319.978V131.175H317.578ZM317.578 131.623C317.578 132.41 317.333 133.108 316.816 133.754L318.691 135.253C319.539 134.193 319.978 132.97 319.978 131.623H317.578ZM316.812 133.76C316.367 134.323 315.788 134.665 315.004 134.791L315.383 137.16C316.732 136.945 317.86 136.306 318.695 135.247L316.812 133.76ZM314.986 134.794C312.635 135.206 309.997 135.415 307.066 135.415V137.815C310.108 137.815 312.888 137.598 315.401 137.157L314.986 134.794ZM329.58 134.887L328.706 135.71L328.719 135.723L328.731 135.736L329.58 134.887ZM329.58 90.3435L328.731 89.4949L328.719 89.5078L328.706 89.521L329.58 90.3435ZM336.428 90.3435L337.277 89.4949L337.277 89.4949L336.428 90.3435ZM337.644 109.479L336.681 108.763L336.444 109.082V109.479H337.644ZM350.508 92.1995L351.471 92.916L351.477 92.9075L351.483 92.899L350.508 92.1995ZM361.068 90.2795L359.995 90.8161L359.995 90.8161L361.068 90.2795ZM360.876 92.1355L359.96 91.3603L359.943 91.3809L359.926 91.4023L360.876 92.1355ZM346.156 111.207L345.206 110.474L345.192 110.492L345.18 110.51L346.156 111.207ZM346.156 112.103L345.18 112.801L345.185 112.808L345.19 112.815L346.156 112.103ZM361.58 133.031L360.614 133.743L360.625 133.758L360.636 133.773L361.58 133.031ZM361.772 134.951L362.845 135.488L362.845 135.488L361.772 134.951ZM351.212 133.031L352.197 132.346L352.192 132.339L351.212 133.031ZM337.644 113.831H336.444V114.213L336.664 114.524L337.644 113.831ZM332.14 134.775C331.493 134.775 330.94 134.551 330.429 134.039L328.731 135.736C329.67 136.675 330.825 137.175 332.14 137.175V134.775ZM330.454 134.065C329.977 133.559 329.756 132.998 329.756 132.327H327.356C327.356 133.62 327.817 134.766 328.706 135.71L330.454 134.065ZM329.756 132.327V92.9035H327.356V132.327H329.756ZM329.756 92.9035C329.756 92.2329 329.977 91.6724 330.454 91.1659L328.706 89.521C327.817 90.4652 327.356 91.6114 327.356 92.9035H329.756ZM330.429 91.192C330.94 90.6803 331.493 90.4555 332.14 90.4555V88.0555C330.825 88.0555 329.67 88.5559 328.731 89.4949L330.429 91.192ZM332.14 90.4555H333.868V88.0555H332.14V90.4555ZM333.868 90.4555C334.515 90.4555 335.068 90.6803 335.579 91.192L337.277 89.4949C336.338 88.5559 335.183 88.0555 333.868 88.0555V90.4555ZM335.579 91.192C336.091 91.7036 336.316 92.2561 336.316 92.9035H338.716C338.716 91.5882 338.216 90.434 337.277 89.4949L335.579 91.192ZM336.316 92.9035V109.479H338.716V92.9035H336.316ZM336.316 109.479C336.316 109.686 336.368 110.061 336.683 110.376C336.999 110.691 337.374 110.743 337.58 110.743V108.343C337.744 108.343 338.087 108.385 338.381 108.679C338.674 108.973 338.716 109.316 338.716 109.479H336.316ZM337.58 110.743C337.786 110.743 338.161 110.691 338.477 110.376C338.792 110.061 338.844 109.686 338.844 109.479H336.444C336.444 109.316 336.486 108.973 336.779 108.679C337.073 108.385 337.416 108.343 337.58 108.343V110.743ZM338.607 110.196L351.471 92.916L349.545 91.4829L336.681 108.763L338.607 110.196ZM351.483 92.899C352.664 91.253 354.22 90.4555 356.268 90.4555V88.0555C353.452 88.0555 351.168 89.2206 349.533 91.5L351.483 92.899ZM356.268 90.4555H359.468V88.0555H356.268V90.4555ZM359.468 90.4555C359.636 90.4555 359.718 90.4923 359.765 90.5222C359.815 90.5543 359.901 90.6285 359.995 90.8161L362.141 89.7428C361.894 89.2477 361.542 88.81 361.059 88.5007C360.572 88.1893 360.026 88.0555 359.468 88.0555V90.4555ZM359.995 90.8161C360.087 90.9998 360.086 91.0964 360.082 91.132C360.079 91.1628 360.066 91.2355 359.96 91.3603L361.792 92.9106C362.156 92.4807 362.409 91.9668 362.47 91.3789C362.53 90.7959 362.391 90.2418 362.141 89.7428L359.995 90.8161ZM359.926 91.4023L345.206 110.474L347.106 111.941L361.826 92.8687L359.926 91.4023ZM345.18 110.51C344.961 110.816 344.796 111.204 344.796 111.655C344.796 112.107 344.961 112.495 345.18 112.801L347.132 111.406C347.137 111.413 347.196 111.502 347.196 111.655C347.196 111.809 347.137 111.898 347.132 111.905L345.18 110.51ZM345.19 112.815L360.614 133.743L362.546 132.32L347.122 111.392L345.19 112.815ZM360.636 133.773C360.756 133.925 360.78 134.024 360.786 134.079C360.791 134.134 360.787 134.238 360.699 134.415L362.845 135.488C363.098 134.982 363.233 134.425 363.174 133.84C363.116 133.255 362.873 132.735 362.524 132.29L360.636 133.773ZM360.699 134.415C360.611 134.591 360.527 134.663 360.471 134.697C360.414 134.732 360.31 134.775 360.108 134.775V137.175C360.674 137.175 361.231 137.048 361.729 136.741C362.227 136.435 362.592 135.995 362.845 135.488L360.699 134.415ZM360.108 134.775H356.908V137.175H360.108V134.775ZM356.908 134.775C354.861 134.775 353.334 133.98 352.197 132.346L350.227 133.717C351.821 136.008 354.091 137.175 356.908 137.175V134.775ZM352.192 132.339L338.624 113.139L336.664 114.524L350.232 133.724L352.192 132.339ZM338.844 113.831C338.844 113.625 338.792 113.25 338.477 112.935C338.161 112.62 337.786 112.567 337.58 112.567V114.967C337.416 114.967 337.073 114.926 336.779 114.632C336.486 114.338 336.444 113.995 336.444 113.831H338.844ZM337.58 112.567C337.374 112.567 336.999 112.62 336.683 112.935C336.368 113.25 336.316 113.625 336.316 113.831H338.716C338.716 113.995 338.674 114.338 338.381 114.632C338.087 114.926 337.744 114.967 337.58 114.967V112.567ZM336.316 113.831V132.327H338.716V113.831H336.316ZM336.316 132.327C336.316 132.975 336.091 133.527 335.579 134.039L337.277 135.736C338.216 134.797 338.716 133.643 338.716 132.327H336.316ZM335.579 134.039C335.068 134.551 334.515 134.775 333.868 134.775V137.175C335.183 137.175 336.338 136.675 337.277 135.736L335.579 134.039ZM333.868 134.775H332.14V137.175H333.868V134.775Z" fill="white"/>
</svg>
