<svg width="413" height="162" viewBox="0 0 413 162" fill="none" xmlns="http://www.w3.org/2000/svg">
<rect width="413" height="162" fill="#1E1D1D"/>
<path d="M68.232 58.824C62.472 56.904 58.296 54.576 55.704 51.84C53.16 49.104 51.888 45.792 51.888 41.904C51.888 37.536 53.352 34.08 56.28 31.536C59.208 28.992 63.312 27.72 68.592 27.72C73.056 27.72 76.944 28.224 80.256 29.232C81.408 29.568 82.32 30.264 82.992 31.32C83.712 32.328 84.072 33.456 84.072 34.704V35.352C84.072 36.264 83.664 36.984 82.848 37.512C82.032 37.992 81.192 38.064 80.328 37.728C76.728 36.336 73.056 35.64 69.312 35.64C66.912 35.64 65.088 36.192 63.84 37.296C62.592 38.4 61.968 39.936 61.968 41.904C61.968 45.36 64.224 47.832 68.736 49.32C75.216 51.384 79.704 53.736 82.2 56.376C84.744 59.016 86.016 62.424 86.016 66.6C86.016 76.68 79.8 81.72 67.368 81.72C63.48 81.72 59.952 81.12 56.784 79.92C55.632 79.488 54.72 78.744 54.048 77.688C53.424 76.632 53.112 75.456 53.112 74.16V73.296C53.112 72.384 53.496 71.736 54.264 71.352C55.032 70.92 55.824 70.896 56.64 71.28C59.808 72.864 63.144 73.656 66.648 73.656C72.744 73.656 75.792 71.352 75.792 66.744C75.792 64.872 75.216 63.336 74.064 62.136C72.912 60.888 70.968 59.784 68.232 58.824Z" fill="#1A4C7B"/>
<path d="M68.232 58.824L68.8942 56.9368L68.8794 56.9316L68.8645 56.9266L68.232 58.824ZM55.704 51.84L54.2393 53.2019L54.2457 53.2087L54.2521 53.2155L55.704 51.84ZM56.28 31.536L54.9683 30.0263L54.9683 30.0263L56.28 31.536ZM80.256 29.232L79.6737 31.1453L79.6848 31.1487L79.696 31.152L80.256 29.232ZM82.992 31.32L81.3047 32.3937L81.3334 32.4389L81.3645 32.4825L82.992 31.32ZM82.848 37.512L83.862 39.2359L83.8987 39.2143L83.9345 39.1911L82.848 37.512ZM80.328 37.728L81.0529 35.864L81.0493 35.8626L80.328 37.728ZM63.84 37.296L65.1651 38.794L65.1651 38.794L63.84 37.296ZM68.736 49.32L68.1096 51.2194L68.1193 51.2226L68.129 51.2257L68.736 49.32ZM82.2 56.376L80.7467 57.75L80.7532 57.7569L80.7598 57.7638L82.2 56.376ZM56.784 79.92L57.4925 78.0497L57.4862 78.0473L56.784 79.92ZM54.048 77.688L52.3261 78.7055L52.3429 78.7339L52.3607 78.7618L54.048 77.688ZM54.264 71.352L55.1584 73.1409L55.202 73.1191L55.2445 73.0952L54.264 71.352ZM56.64 71.28L57.5344 69.4911L57.5131 69.4805L57.4916 69.4704L56.64 71.28ZM74.064 62.136L72.5944 63.4926L72.6077 63.5069L72.6212 63.5211L74.064 62.136ZM68.8645 56.9266C63.246 55.0538 59.4241 52.8588 57.1559 50.4645L54.2521 53.2155C57.1679 56.2932 61.698 58.7542 67.5995 60.7214L68.8645 56.9266ZM57.1687 50.4781C54.9839 48.1284 53.888 45.3094 53.888 41.904H49.888C49.888 46.2746 51.3361 50.0796 54.2393 53.2019L57.1687 50.4781ZM53.888 41.904C53.888 38.0336 55.159 35.1595 57.5917 33.0457L54.9683 30.0263C51.545 33.0005 49.888 37.0384 49.888 41.904H53.888ZM57.5917 33.0457C60.0426 30.9163 63.6191 29.72 68.592 29.72V25.72C63.0049 25.72 58.3734 27.0677 54.9683 30.0263L57.5917 33.0457ZM68.592 29.72C72.9126 29.72 76.5959 30.2086 79.6737 31.1453L80.8383 27.3186C77.2921 26.2394 73.1994 25.72 68.592 25.72V29.72ZM79.696 31.152C80.3605 31.3458 80.881 31.728 81.3047 32.3937L84.6793 30.2462C83.759 28.8 82.4555 27.7902 80.816 27.312L79.696 31.152ZM81.3645 32.4825C81.8403 33.1486 82.072 33.8695 82.072 34.704H86.072C86.072 33.0425 85.5837 31.5074 84.6195 30.1575L81.3645 32.4825ZM82.072 34.704V35.352H86.072V34.704H82.072ZM82.072 35.352C82.072 35.4985 82.0426 35.5606 82.026 35.59C82.0064 35.6246 81.9462 35.7134 81.7615 35.8329L83.9345 39.1911C85.2753 38.3236 86.072 36.9941 86.072 35.352H82.072ZM81.834 35.7881C81.5325 35.9654 81.3324 35.9727 81.0529 35.864L79.6031 39.592C81.0516 40.1553 82.5315 40.0186 83.862 39.2359L81.834 35.7881ZM81.0493 35.8626C77.2265 34.3844 73.3103 33.64 69.312 33.64V37.64C72.8017 37.64 76.2295 38.2876 79.6067 39.5934L81.0493 35.8626ZM69.312 33.64C66.6358 33.64 64.261 34.2533 62.5149 35.798L65.1651 38.794C65.915 38.1307 67.1882 37.64 69.312 37.64V33.64ZM62.5149 35.798C60.7592 37.3511 59.968 39.4769 59.968 41.904H63.968C63.968 40.3951 64.4248 39.4489 65.1651 38.794L62.5149 35.798ZM59.968 41.904C59.968 44.1129 60.7065 46.0807 62.1827 47.6982C63.6193 49.2724 65.6565 50.4104 68.1096 51.2194L69.3624 47.4206C67.3035 46.7416 65.9567 45.8996 65.1373 45.0018C64.3575 44.1473 63.968 43.1511 63.968 41.904H59.968ZM68.129 51.2257C74.5225 53.2621 78.6086 55.4886 80.7467 57.75L83.6533 55.002C80.7994 51.9834 75.9095 49.5059 69.343 47.4143L68.129 51.2257ZM80.7598 57.7638C82.8941 59.9786 84.016 62.8638 84.016 66.6H88.016C88.016 61.9842 86.5939 58.0534 83.6402 54.9882L80.7598 57.7638ZM84.016 66.6C84.016 71.2078 82.6158 74.3421 80.0944 76.3865C77.4928 78.4959 73.3656 79.72 67.368 79.72V83.72C73.8024 83.72 78.9992 82.4241 82.6136 79.4935C86.3082 76.4979 88.016 72.0722 88.016 66.6H84.016ZM67.368 79.72C63.6868 79.72 60.4033 79.1523 57.4925 78.0497L56.0755 81.7903C59.5007 83.0877 63.2732 83.72 67.368 83.72V79.72ZM57.4862 78.0473C56.7481 77.7705 56.1787 77.311 55.7353 76.6142L52.3607 78.7618C53.2613 80.177 54.5159 81.2055 56.0818 81.7927L57.4862 78.0473ZM55.7699 76.6705C55.3384 75.9404 55.112 75.1191 55.112 74.16H51.112C51.112 75.7929 51.5096 77.3236 52.3261 78.7055L55.7699 76.6705ZM55.112 74.16V73.296H51.112V74.16H55.112ZM55.112 73.296C55.112 73.2078 55.1213 73.1587 55.126 73.1395C55.1303 73.1223 55.131 73.1281 55.1206 73.1456C55.1098 73.1637 55.0983 73.1758 55.0945 73.1792C55.0921 73.1813 55.1085 73.1658 55.1584 73.1409L53.3696 69.5631C52.6914 69.9022 52.0936 70.4075 51.6794 71.1064C51.2694 71.7982 51.112 72.5569 51.112 73.296H55.112ZM55.2445 73.0952C55.433 72.9891 55.5416 72.9735 55.7884 73.0896L57.4916 69.4704C56.1064 68.8185 54.631 68.8509 53.2835 69.6088L55.2445 73.0952ZM55.7456 73.0689C59.1882 74.7901 62.83 75.656 66.648 75.656V71.656C63.458 71.656 60.4278 70.9379 57.5344 69.4911L55.7456 73.0689ZM66.648 75.656C69.8908 75.656 72.6883 75.0532 74.712 73.5235C76.8413 71.914 77.792 69.5301 77.792 66.744H73.792C73.792 68.5659 73.2187 69.638 72.3 70.3325C71.2757 71.1068 69.5012 71.656 66.648 71.656V75.656ZM77.792 66.744C77.792 64.4259 77.0622 62.3711 75.5068 60.7509L72.6212 63.5211C73.3698 64.3009 73.792 65.3181 73.792 66.744H77.792ZM75.5336 60.7794C74.0547 59.1773 71.7484 57.9383 68.8942 56.9368L67.5698 60.7112C70.1876 61.6297 71.7693 62.5987 72.5944 63.4926L75.5336 60.7794Z" fill="white"/>
<path d="M142.784 89.616L127.592 62.04C127.16 61.272 127.184 60.48 127.664 59.664C128.144 58.848 128.84 58.44 129.752 58.44H133.208C134.456 58.44 135.608 58.776 136.664 59.448C137.72 60.12 138.512 61.008 139.04 62.112L148.4 81.912C148.4 81.96 148.424 81.984 148.472 81.984C148.52 81.984 148.544 81.96 148.544 81.912L157.904 62.112C158.432 61.008 159.224 60.12 160.28 59.448C161.336 58.776 162.488 58.44 163.736 58.44H166.904C167.816 58.44 168.512 58.848 168.992 59.664C169.472 60.48 169.496 61.272 169.064 62.04L153.872 89.616C153.632 90 153.512 90.384 153.512 90.768V106.896C153.512 108 153.104 108.96 152.288 109.776C151.52 110.592 150.584 111 149.48 111H147.176C146.072 111 145.112 110.592 144.296 109.776C143.528 108.96 143.144 108 143.144 106.896V90.768C143.144 90.384 143.024 90 142.784 89.616Z" fill="#00F0FF"/>
<path d="M142.784 89.616L141.032 90.5811L141.059 90.6293L141.088 90.676L142.784 89.616ZM127.592 62.04L129.344 61.0749L129.339 61.0672L129.335 61.0595L127.592 62.04ZM127.664 59.664L125.94 58.65L125.94 58.65L127.664 59.664ZM136.664 59.448L135.59 61.1353L135.59 61.1353L136.664 59.448ZM139.04 62.112L140.848 61.2572L140.844 61.2491L139.04 62.112ZM148.4 81.912H150.4V81.4631L150.208 81.0572L148.4 81.912ZM148.544 81.912L146.736 81.0572L146.544 81.4631V81.912H148.544ZM157.904 62.112L156.1 61.2491L156.096 61.2572L157.904 62.112ZM160.28 59.448L159.206 57.7607L159.206 57.7607L160.28 59.448ZM168.992 59.664L167.268 60.678L167.268 60.678L168.992 59.664ZM169.064 62.04L167.321 61.0595L167.317 61.0672L167.312 61.0749L169.064 62.04ZM153.872 89.616L155.568 90.676L155.597 90.6293L155.624 90.5811L153.872 89.616ZM152.288 109.776L150.874 108.362L150.852 108.383L150.832 108.405L152.288 109.776ZM144.296 109.776L142.84 111.147L142.86 111.169L142.882 111.19L144.296 109.776ZM144.536 88.6509L129.344 61.0749L125.84 63.0051L141.032 90.5811L144.536 88.6509ZM129.335 61.0595C129.303 61.003 129.292 60.9682 129.288 60.9534C129.285 60.94 129.285 60.9343 129.285 60.9306C129.285 60.9302 129.285 60.8527 129.388 60.678L125.94 58.65C125.132 60.0243 125.037 61.5774 125.849 63.0205L129.335 61.0595ZM129.388 60.678C129.485 60.5128 129.551 60.4751 129.557 60.4714C129.56 60.4697 129.604 60.44 129.752 60.44V56.44C128.099 56.44 126.763 57.2516 125.94 58.65L129.388 60.678ZM129.752 60.44H133.208V56.44H129.752V60.44ZM133.208 60.44C134.074 60.44 134.854 60.6669 135.59 61.1353L137.738 57.7607C136.362 56.8851 134.838 56.44 133.208 56.44V60.44ZM135.59 61.1353C136.338 61.6112 136.873 62.2167 137.236 62.9749L140.844 61.2491C140.151 59.7993 139.102 58.6288 137.738 57.7607L135.59 61.1353ZM137.232 62.9668L146.592 82.7668L150.208 81.0572L140.848 61.2572L137.232 62.9668ZM146.4 81.912C146.4 82.2443 146.484 82.8609 147.004 83.3802C147.523 83.8996 148.14 83.984 148.472 83.984V79.984C148.756 79.984 149.337 80.0564 149.832 80.5518C150.328 81.0471 150.4 81.6277 150.4 81.912H146.4ZM148.472 83.984C148.804 83.984 149.421 83.8996 149.94 83.3802C150.46 82.8609 150.544 82.2443 150.544 81.912H146.544C146.544 81.6277 146.616 81.0471 147.112 80.5518C147.607 80.0564 148.188 79.984 148.472 79.984V83.984ZM150.352 82.7668L159.712 62.9668L156.096 61.2572L146.736 81.0572L150.352 82.7668ZM159.708 62.9749C160.071 62.2167 160.606 61.6112 161.354 61.1353L159.206 57.7607C157.842 58.6288 156.793 59.7993 156.1 61.2491L159.708 62.9749ZM161.354 61.1353C162.09 60.6669 162.87 60.44 163.736 60.44V56.44C162.106 56.44 160.582 56.8851 159.206 57.7607L161.354 61.1353ZM163.736 60.44H166.904V56.44H163.736V60.44ZM166.904 60.44C167.052 60.44 167.096 60.4697 167.099 60.4714C167.105 60.4751 167.171 60.5128 167.268 60.678L170.716 58.65C169.893 57.2516 168.557 56.44 166.904 56.44V60.44ZM167.268 60.678C167.371 60.8527 167.371 60.9302 167.371 60.9306C167.371 60.9343 167.371 60.94 167.368 60.9534C167.364 60.9682 167.353 61.003 167.321 61.0595L170.807 63.0205C171.619 61.5774 171.524 60.0243 170.716 58.65L167.268 60.678ZM167.312 61.0749L152.12 88.6509L155.624 90.5811L170.816 63.0051L167.312 61.0749ZM152.176 88.556C151.773 89.2001 151.512 89.9464 151.512 90.768H155.512C155.512 90.7878 155.508 90.7967 155.511 90.7885C155.514 90.7784 155.527 90.7411 155.568 90.676L152.176 88.556ZM151.512 90.768V106.896H155.512V90.768H151.512ZM151.512 106.896C151.512 107.443 151.334 107.902 150.874 108.362L153.702 111.19C154.874 110.018 155.512 108.557 155.512 106.896H151.512ZM150.832 108.405C150.435 108.827 150.023 109 149.48 109V113C151.145 113 152.605 112.357 153.744 111.147L150.832 108.405ZM149.48 109H147.176V113H149.48V109ZM147.176 109C146.629 109 146.17 108.822 145.71 108.362L142.882 111.19C144.054 112.362 145.515 113 147.176 113V109ZM145.752 108.405C145.328 107.954 145.144 107.482 145.144 106.896H141.144C141.144 108.518 141.728 109.966 142.84 111.147L145.752 108.405ZM145.144 106.896V90.768H141.144V106.896H145.144ZM145.144 90.768C145.144 89.9464 144.883 89.2001 144.48 88.556L141.088 90.676C141.129 90.7411 141.142 90.7784 141.145 90.7885C141.148 90.7967 141.144 90.7878 141.144 90.768H145.144Z" fill="white"/>
<path d="M96.24 81C95.504 81 94.864 80.728 94.32 80.184C93.808 79.64 93.552 79 93.552 78.264V47.736C93.552 47 93.808 46.36 94.32 45.816C94.864 45.272 95.504 45 96.24 45H97.2C97.936 45 98.576 45.272 99.12 45.816C99.664 46.36 99.936 47 99.936 47.736V58.872C99.936 58.904 99.952 58.92 99.984 58.92C100.016 58.92 100.048 58.904 100.08 58.872C102.32 56.664 104.784 55.56 107.472 55.56C110.384 55.56 112.496 56.392 113.808 58.056C115.12 59.72 115.776 62.568 115.776 66.6V78.264C115.776 79 115.504 79.64 114.96 80.184C114.416 80.728 113.776 81 113.04 81H112.272C111.536 81 110.896 80.728 110.352 80.184C109.808 79.64 109.536 79 109.536 78.264V67.56C109.536 64.776 109.232 62.936 108.624 62.04C108.048 61.144 106.944 60.696 105.312 60.696C104.032 60.696 102.816 61.272 101.664 62.424C100.512 63.576 99.936 64.808 99.936 66.12V78.264C99.936 79 99.664 79.64 99.12 80.184C98.576 80.728 97.936 81 97.2 81H96.24ZM136.828 62.232C135.9 60.888 134.492 60.216 132.604 60.216C130.716 60.216 129.292 60.888 128.332 62.232C127.404 63.544 126.94 65.64 126.94 68.52C126.94 71.4 127.404 73.512 128.332 74.856C129.292 76.168 130.716 76.824 132.604 76.824C134.492 76.824 135.9 76.168 136.828 74.856C137.788 73.512 138.268 71.4 138.268 68.52C138.268 65.64 137.788 63.544 136.828 62.232ZM141.532 78.12C139.42 80.36 136.444 81.48 132.604 81.48C128.764 81.48 125.772 80.36 123.628 78.12C121.516 75.848 120.46 72.648 120.46 68.52C120.46 64.392 121.516 61.208 123.628 58.968C125.772 56.696 128.764 55.56 132.604 55.56C136.444 55.56 139.42 56.696 141.532 58.968C143.676 61.208 144.748 64.392 144.748 68.52C144.748 72.648 143.676 75.848 141.532 78.12ZM152.882 78.36L148.082 58.68C147.922 58.008 148.05 57.4 148.466 56.856C148.914 56.312 149.474 56.04 150.146 56.04H151.346C152.146 56.04 152.85 56.296 153.458 56.808C154.066 57.32 154.434 57.96 154.562 58.728L157.538 75.672C157.538 75.704 157.554 75.72 157.586 75.72C157.65 75.72 157.682 75.704 157.682 75.672L160.706 58.728C160.866 57.96 161.25 57.32 161.858 56.808C162.466 56.296 163.154 56.04 163.922 56.04H166.322C167.122 56.04 167.826 56.296 168.434 56.808C169.042 57.32 169.41 57.96 169.538 58.728L172.562 75.672C172.562 75.704 172.594 75.72 172.658 75.72C172.69 75.72 172.706 75.704 172.706 75.672L175.682 58.728C175.842 57.96 176.226 57.32 176.834 56.808C177.442 56.296 178.13 56.04 178.898 56.04H179.906C180.61 56.04 181.17 56.312 181.586 56.856C182.034 57.4 182.162 58.008 181.97 58.68L177.17 78.36C176.978 79.128 176.562 79.768 175.922 80.28C175.314 80.76 174.61 81 173.81 81H171.41C170.642 81 169.954 80.744 169.346 80.232C168.738 79.72 168.354 79.08 168.194 78.312L165.074 61.848C165.074 61.816 165.058 61.8 165.026 61.8C164.994 61.8 164.978 61.816 164.978 61.848L161.858 78.312C161.73 79.08 161.362 79.72 160.754 80.232C160.146 80.744 159.442 81 158.642 81H156.242C155.474 81 154.77 80.76 154.13 80.28C153.49 79.768 153.074 79.128 152.882 78.36Z" fill="#1A4C7B" fill-opacity="0.57"/>
<path d="M94.32 80.184L92.8636 81.5547L92.8844 81.5768L92.9058 81.5982L94.32 80.184ZM94.32 45.816L92.9058 44.4018L92.8844 44.4232L92.8636 44.4453L94.32 45.816ZM100.08 58.872L98.676 57.4476L98.6709 57.4527L98.6658 57.4578L100.08 58.872ZM113.808 58.056L115.379 56.8177L115.379 56.8177L113.808 58.056ZM114.96 80.184L116.374 81.5982L116.374 81.5982L114.96 80.184ZM110.352 80.184L111.766 78.7698L111.766 78.7698L110.352 80.184ZM108.624 62.04L106.942 63.1215L106.955 63.1424L106.969 63.163L108.624 62.04ZM101.664 62.424L100.25 61.0098L100.25 61.0098L101.664 62.424ZM96.24 79C96.0606 79 95.9221 78.9576 95.7342 78.7698L92.9058 81.5982C93.8059 82.4984 94.9474 83 96.24 83V79ZM95.7764 78.8133C95.6077 78.6341 95.552 78.4821 95.552 78.264H91.552C91.552 79.5179 92.0083 80.6459 92.8636 81.5547L95.7764 78.8133ZM95.552 78.264V47.736H91.552V78.264H95.552ZM95.552 47.736C95.552 47.5179 95.6077 47.3659 95.7764 47.1867L92.8636 44.4453C92.0083 45.3541 91.552 46.4821 91.552 47.736H95.552ZM95.7342 47.2302C95.9221 47.0424 96.0606 47 96.24 47V43C94.9474 43 93.8059 43.5016 92.9058 44.4018L95.7342 47.2302ZM96.24 47H97.2V43H96.24V47ZM97.2 47C97.3794 47 97.5179 47.0424 97.7058 47.2302L100.534 44.4018C99.6341 43.5016 98.4926 43 97.2 43V47ZM97.7058 47.2302C97.8936 47.4181 97.936 47.5566 97.936 47.736H101.936C101.936 46.4434 101.434 45.3019 100.534 44.4018L97.7058 47.2302ZM97.936 47.736V58.872H101.936V47.736H97.936ZM97.936 58.872C97.936 59.1963 98.0184 59.8068 98.5338 60.3222C99.0491 60.8376 99.6597 60.92 99.984 60.92V56.92C100.276 56.92 100.863 56.9944 101.362 57.4938C101.862 57.9932 101.936 58.5797 101.936 58.872H97.936ZM99.984 60.92C100.734 60.92 101.244 60.5362 101.494 60.2862L98.6658 57.4578C98.8518 57.2718 99.2985 56.92 99.984 56.92V60.92ZM101.484 60.2963C103.418 58.3897 105.398 57.56 107.472 57.56V53.56C104.17 53.56 101.222 54.9383 98.676 57.4476L101.484 60.2963ZM107.472 57.56C110.015 57.56 111.434 58.2747 112.237 59.2943L115.379 56.8177C113.558 54.5093 110.753 53.56 107.472 53.56V57.56ZM112.237 59.2943C113.113 60.4047 113.776 62.6677 113.776 66.6H117.776C117.776 62.4683 117.127 59.0353 115.379 56.8177L112.237 59.2943ZM113.776 66.6V78.264H117.776V66.6H113.776ZM113.776 78.264C113.776 78.4434 113.734 78.5819 113.546 78.7698L116.374 81.5982C117.274 80.6981 117.776 79.5566 117.776 78.264H113.776ZM113.546 78.7698C113.358 78.9576 113.219 79 113.04 79V83C114.333 83 115.474 82.4984 116.374 81.5982L113.546 78.7698ZM113.04 79H112.272V83H113.04V79ZM112.272 79C112.093 79 111.954 78.9576 111.766 78.7698L108.938 81.5982C109.838 82.4984 110.979 83 112.272 83V79ZM111.766 78.7698C111.578 78.5819 111.536 78.4434 111.536 78.264H107.536C107.536 79.5566 108.038 80.6981 108.938 81.5982L111.766 78.7698ZM111.536 78.264V67.56H107.536V78.264H111.536ZM111.536 67.56C111.536 66.1065 111.457 64.8323 111.281 63.766C111.111 62.7379 110.823 61.7185 110.279 60.917L106.969 63.163C107.033 63.2575 107.201 63.6061 107.335 64.418C107.463 65.1917 107.536 66.2295 107.536 67.56H111.536ZM110.306 60.9585C109.195 59.2292 107.242 58.696 105.312 58.696V62.696C106.646 62.696 106.901 63.0588 106.942 63.1215L110.306 60.9585ZM105.312 58.696C103.367 58.696 101.669 59.5901 100.25 61.0098L103.078 63.8382C103.963 62.9539 104.697 62.696 105.312 62.696V58.696ZM100.25 61.0098C98.8187 62.4409 97.936 64.1557 97.936 66.12H101.936C101.936 65.4603 102.205 64.7111 103.078 63.8382L100.25 61.0098ZM97.936 66.12V78.264H101.936V66.12H97.936ZM97.936 78.264C97.936 78.4434 97.8936 78.5819 97.7058 78.7698L100.534 81.5982C101.434 80.6981 101.936 79.5566 101.936 78.264H97.936ZM97.7058 78.7698C97.5179 78.9576 97.3794 79 97.2 79V83C98.4926 83 99.6341 82.4984 100.534 81.5982L97.7058 78.7698ZM97.2 79H96.24V83H97.2V79ZM136.828 62.232L135.182 63.3684L135.198 63.3909L135.214 63.413L136.828 62.232ZM128.332 62.232L126.705 61.0695L126.699 61.0771L128.332 62.232ZM128.332 74.856L126.686 75.9924L126.702 76.0149L126.718 76.037L128.332 74.856ZM136.828 74.856L135.201 73.6935L135.195 73.7011L136.828 74.856ZM141.532 78.12L140.078 76.7474L140.077 76.748L141.532 78.12ZM123.628 78.12L122.163 79.4817L122.173 79.4924L122.183 79.5029L123.628 78.12ZM123.628 58.968L122.174 57.5954L122.173 57.596L123.628 58.968ZM141.532 58.968L140.067 60.3297L140.077 60.3404L140.087 60.3509L141.532 58.968ZM138.474 61.0956C137.11 59.1202 135.031 58.216 132.604 58.216V62.216C133.953 62.216 134.69 62.6558 135.182 63.3684L138.474 61.0956ZM132.604 58.216C130.177 58.216 128.098 59.1189 126.705 61.0695L129.96 63.3945C130.486 62.6571 131.256 62.216 132.604 62.216V58.216ZM126.699 61.0771C125.408 62.903 124.94 65.5133 124.94 68.52H128.94C128.94 65.7667 129.4 64.185 129.965 63.3869L126.699 61.0771ZM124.94 68.52C124.94 71.5333 125.41 74.1443 126.686 75.9924L129.978 73.7196C129.398 72.8797 128.94 71.2667 128.94 68.52H124.94ZM126.718 76.037C128.119 77.9517 130.196 78.824 132.604 78.824V74.824C131.237 74.824 130.465 74.3843 129.946 73.675L126.718 76.037ZM132.604 78.824C135.011 78.824 137.089 77.9507 138.461 76.0109L135.195 73.7011C134.711 74.3853 133.973 74.824 132.604 74.824V78.824ZM138.456 76.0185C139.78 74.1648 140.268 71.5417 140.268 68.52H136.268C136.268 71.2583 135.797 72.8592 135.201 73.6935L138.456 76.0185ZM140.268 68.52C140.268 65.5048 139.782 62.8823 138.442 61.051L135.214 63.413C135.794 64.2057 136.268 65.7752 136.268 68.52H140.268ZM140.077 76.748C138.432 78.4925 136.039 79.48 132.604 79.48V83.48C136.85 83.48 140.408 82.2275 142.987 79.492L140.077 76.748ZM132.604 79.48C129.171 79.48 126.753 78.4928 125.073 76.7371L122.183 79.5029C124.791 82.2272 128.357 83.48 132.604 83.48V79.48ZM125.093 76.7583C123.426 74.9649 122.46 72.3137 122.46 68.52H118.46C118.46 72.9823 119.606 76.7311 122.163 79.4817L125.093 76.7583ZM122.46 68.52C122.46 64.7244 123.427 62.0972 125.083 60.34L122.173 57.596C119.606 60.3188 118.46 64.0596 118.46 68.52H122.46ZM125.083 60.3406C126.765 58.5578 129.179 57.56 132.604 57.56V53.56C128.349 53.56 124.779 54.8342 122.174 57.5954L125.083 60.3406ZM132.604 57.56C136.03 57.56 138.42 58.5581 140.067 60.3297L142.997 57.6063C140.42 54.8339 136.858 53.56 132.604 53.56V57.56ZM140.087 60.3509C141.77 62.1088 142.748 64.732 142.748 68.52H146.748C146.748 64.052 145.582 60.3072 142.977 57.5851L140.087 60.3509ZM142.748 68.52C142.748 72.3062 141.771 74.9533 140.078 76.7474L142.987 79.4926C145.582 76.7427 146.748 72.9898 146.748 68.52H142.748ZM152.882 78.36L150.939 78.8339L150.942 78.8451L152.882 78.36ZM148.082 58.68L146.136 59.1432L146.139 59.1539L148.082 58.68ZM148.466 56.856L146.922 55.5846L146.899 55.6124L146.877 55.6411L148.466 56.856ZM153.458 56.808L152.17 58.3378L152.17 58.3378L153.458 56.808ZM154.562 58.728L152.589 59.0568L152.591 59.0654L152.592 59.074L154.562 58.728ZM157.538 75.672H159.538V75.4977L159.508 75.326L157.538 75.672ZM157.682 75.672L155.713 75.3206L155.682 75.4949V75.672H157.682ZM160.706 58.728L158.748 58.3201L158.742 58.3483L158.737 58.3766L160.706 58.728ZM161.858 56.808L163.146 58.3378L163.146 58.3378L161.858 56.808ZM168.434 56.808L167.146 58.3378L167.146 58.3378L168.434 56.808ZM169.538 58.728L167.565 59.0568L167.567 59.0681L167.569 59.0794L169.538 58.728ZM172.562 75.672H174.562V75.4949L174.531 75.3206L172.562 75.672ZM172.706 75.672L170.736 75.326L170.706 75.4977V75.672H172.706ZM175.682 58.728L173.724 58.3201L173.717 58.351L173.712 58.382L175.682 58.728ZM176.834 56.808L178.122 58.3378L178.122 58.3378L176.834 56.808ZM181.586 56.856L179.997 58.0709L180.019 58.0996L180.042 58.1274L181.586 56.856ZM181.97 58.68L180.047 58.1306L180.036 58.1681L180.027 58.2061L181.97 58.68ZM177.17 78.36L179.11 78.8451L179.113 78.8339L177.17 78.36ZM175.922 80.28L177.161 81.8498L177.171 81.8417L175.922 80.28ZM169.346 80.232L170.634 78.7022L170.634 78.7022L169.346 80.232ZM168.194 78.312L166.229 78.6844L166.232 78.7022L166.236 78.7199L168.194 78.312ZM165.074 61.848H163.074V62.0358L163.109 62.2204L165.074 61.848ZM164.978 61.848L166.943 62.2204L166.978 62.0358V61.848H164.978ZM161.858 78.312L159.893 77.9396L159.889 77.9614L159.885 77.9832L161.858 78.312ZM154.13 80.28L152.88 81.8417L152.905 81.8613L152.93 81.88L154.13 80.28ZM154.825 77.8861L150.025 58.2061L146.139 59.1539L150.939 78.8339L154.825 77.8861ZM150.027 58.2168C150.017 58.1737 150.016 58.1483 150.015 58.138C150.015 58.1284 150.016 58.1276 150.015 58.132C150.014 58.1365 150.013 58.1365 150.016 58.13C150.02 58.1229 150.03 58.103 150.055 58.0709L146.877 55.6411C146.092 56.6673 145.838 57.8926 146.136 59.1432L150.027 58.2168ZM150.01 58.1274C150.044 58.0862 150.068 58.064 150.081 58.0535C150.094 58.0434 150.098 58.0417 150.096 58.043C150.093 58.0444 150.091 58.0446 150.094 58.044C150.098 58.0432 150.113 58.04 150.146 58.04V54.04C148.844 54.04 147.729 54.6051 146.922 55.5846L150.01 58.1274ZM150.146 58.04H151.346V54.04H150.146V58.04ZM151.346 58.04C151.678 58.04 151.925 58.1316 152.17 58.3378L154.746 55.2782C153.775 54.4604 152.614 54.04 151.346 54.04V58.04ZM152.17 58.3378C152.422 58.5506 152.541 58.7684 152.589 59.0568L156.535 58.3992C156.327 57.1516 155.71 56.0894 154.746 55.2782L152.17 58.3378ZM152.592 59.074L155.568 76.018L159.508 75.326L156.532 58.382L152.592 59.074ZM155.538 75.672C155.538 75.9963 155.62 76.6069 156.136 77.1222C156.651 77.6376 157.262 77.72 157.586 77.72V73.72C157.878 73.72 158.465 73.7944 158.964 74.2938C159.463 74.7931 159.538 75.3797 159.538 75.672H155.538ZM157.586 77.72C157.72 77.72 158.118 77.7138 158.552 77.4969C158.798 77.3742 159.102 77.1599 159.34 76.8024C159.587 76.4324 159.682 76.03 159.682 75.672H155.682C155.682 75.33 155.773 74.9416 156.012 74.5836C156.242 74.2381 156.534 74.0338 156.763 73.9191C157.165 73.7182 157.516 73.72 157.586 73.72V77.72ZM159.651 76.0234L162.675 59.0794L158.737 58.3766L155.713 75.3206L159.651 76.0234ZM162.664 59.1359C162.731 58.8126 162.876 58.5655 163.146 58.3378L160.57 55.2782C159.624 56.0745 159.001 57.1074 158.748 58.3201L162.664 59.1359ZM163.146 58.3378C163.407 58.1179 163.643 58.04 163.922 58.04V54.04C162.665 54.04 161.524 54.4741 160.57 55.2782L163.146 58.3378ZM163.922 58.04H166.322V54.04H163.922V58.04ZM166.322 58.04C166.654 58.04 166.901 58.1316 167.146 58.3378L169.722 55.2782C168.751 54.4604 167.59 54.04 166.322 54.04V58.04ZM167.146 58.3378C167.398 58.5506 167.517 58.7684 167.565 59.0568L171.511 58.3992C171.303 57.1516 170.686 56.0894 169.722 55.2782L167.146 58.3378ZM167.569 59.0794L170.593 76.0234L174.531 75.3206L171.507 58.3766L167.569 59.0794ZM170.562 75.672C170.562 76.03 170.657 76.4324 170.904 76.8024C171.142 77.1599 171.446 77.3742 171.691 77.4969C172.125 77.7138 172.524 77.72 172.658 77.72V73.72C172.728 73.72 173.078 73.7182 173.48 73.9191C173.71 74.0338 174.002 74.2381 174.232 74.5836C174.471 74.9416 174.562 75.33 174.562 75.672H170.562ZM172.658 77.72C172.982 77.72 173.593 77.6376 174.108 77.1222C174.623 76.6068 174.706 75.9963 174.706 75.672H170.706C170.706 75.3797 170.78 74.7932 171.28 74.2938C171.779 73.7944 172.366 73.72 172.658 73.72V77.72ZM174.676 76.018L177.652 59.074L173.712 58.382L170.736 75.326L174.676 76.018ZM177.64 59.1359C177.707 58.8126 177.852 58.5655 178.122 58.3378L175.546 55.2782C174.6 56.0745 173.977 57.1074 173.724 58.3201L177.64 59.1359ZM178.122 58.3378C178.383 58.1179 178.619 58.04 178.898 58.04V54.04C177.641 54.04 176.5 54.4741 175.546 55.2782L178.122 58.3378ZM178.898 58.04H179.906V54.04H178.898V58.04ZM179.906 58.04C179.953 58.04 179.978 58.0445 179.986 58.0462C179.993 58.0478 179.99 58.0477 179.98 58.043C179.976 58.0409 179.972 58.0387 179.968 58.0365C179.965 58.0344 179.964 58.0331 179.964 58.0334C179.964 58.0336 179.976 58.0435 179.997 58.0709L183.175 55.6411C182.368 54.5863 181.212 54.04 179.906 54.04V58.04ZM180.042 58.1274C180.067 58.1581 180.074 58.1729 180.073 58.1704C180.072 58.1694 180.07 58.1652 180.068 58.158C180.065 58.1507 180.063 58.1419 180.061 58.132C180.059 58.1221 180.057 58.1127 180.057 58.1044C180.056 58.0961 180.056 58.0905 180.056 58.0881C180.057 58.0829 180.057 58.096 180.047 58.1306L183.893 59.2294C184.267 57.9187 183.992 56.6312 183.13 55.5846L180.042 58.1274ZM180.027 58.2061L175.227 77.8861L179.113 78.8339L183.913 59.1539L180.027 58.2061ZM175.23 77.8749C175.148 78.2022 174.984 78.4694 174.672 78.7183L177.171 81.8417C178.14 81.0666 178.808 80.0538 179.11 78.8451L175.23 77.8749ZM174.683 78.7102C174.44 78.9019 174.176 79 173.81 79V83C175.044 83 176.188 82.6181 177.161 81.8498L174.683 78.7102ZM173.81 79H171.41V83H173.81V79ZM171.41 79C171.131 79 170.895 78.9221 170.634 78.7022L168.058 81.7618C169.012 82.5659 170.153 83 171.41 83V79ZM170.634 78.7022C170.364 78.4745 170.219 78.2274 170.152 77.9041L166.236 78.7199C166.489 79.9326 167.112 80.9655 168.058 81.7618L170.634 78.7022ZM170.159 77.9396L167.039 61.4756L163.109 62.2204L166.229 78.6844L170.159 77.9396ZM167.074 61.848C167.074 61.5237 166.991 60.9131 166.476 60.3978C165.961 59.8824 165.35 59.8 165.026 59.8V63.8C164.734 63.8 164.147 63.7256 163.648 63.2262C163.148 62.7269 163.074 62.1403 163.074 61.848H167.074ZM165.026 59.8C164.702 59.8 164.091 59.8824 163.576 60.3978C163.06 60.9131 162.978 61.5237 162.978 61.848H166.978C166.978 62.1403 166.903 62.7269 166.404 63.2262C165.905 63.7256 165.318 63.8 165.026 63.8V59.8ZM163.013 61.4756L159.893 77.9396L163.823 78.6844L166.943 62.2204L163.013 61.4756ZM159.885 77.9832C159.837 78.2716 159.718 78.4894 159.466 78.7022L162.042 81.7618C163.006 80.9506 163.623 79.8884 163.831 78.6408L159.885 77.9832ZM159.466 78.7022C159.221 78.9084 158.974 79 158.642 79V83C159.91 83 161.071 82.5796 162.042 81.7618L159.466 78.7022ZM158.642 79H156.242V83H158.642V79ZM156.242 79C155.926 79 155.639 78.9119 155.33 78.68L152.93 81.88C153.901 82.6081 155.022 83 156.242 83V79ZM155.379 78.7183C155.068 78.4694 154.904 78.2022 154.822 77.8749L150.942 78.8451C151.244 80.0538 151.912 81.0666 152.88 81.8417L155.379 78.7183Z" fill="white"/>
<path d="M176 91.9927C175.072 90.6487 173.664 89.9767 171.776 89.9767C169.888 89.9767 168.464 90.6487 167.504 91.9927C166.576 93.3047 166.112 95.4007 166.112 98.2807C166.112 101.161 166.576 103.273 167.504 104.617C168.464 105.929 169.888 106.585 171.776 106.585C173.664 106.585 175.072 105.929 176 104.617C176.96 103.273 177.44 101.161 177.44 98.2807C177.44 95.4007 176.96 93.3047 176 91.9927ZM180.704 107.881C178.592 110.121 175.616 111.241 171.776 111.241C167.936 111.241 164.944 110.121 162.8 107.881C160.688 105.609 159.632 102.409 159.632 98.2807C159.632 94.1527 160.688 90.9687 162.8 88.7287C164.944 86.4567 167.936 85.3207 171.776 85.3207C175.616 85.3207 178.592 86.4567 180.704 88.7287C182.848 90.9687 183.92 94.1527 183.92 98.2807C183.92 102.409 182.848 105.609 180.704 107.881ZM196.699 111.241C193.883 111.241 191.835 110.473 190.555 108.937C189.275 107.369 188.635 104.729 188.635 101.017V88.5367C188.635 87.8007 188.907 87.1607 189.451 86.6167C189.995 86.0727 190.635 85.8007 191.371 85.8007H192.139C192.875 85.8007 193.515 86.0727 194.059 86.6167C194.603 87.1607 194.875 87.8007 194.875 88.5367V100.345C194.875 102.585 195.179 104.137 195.787 105.001C196.395 105.865 197.419 106.297 198.859 106.297C200.171 106.297 201.387 105.737 202.507 104.617C203.659 103.497 204.235 102.297 204.235 101.017V88.5367C204.235 87.8007 204.507 87.1607 205.051 86.6167C205.595 86.0727 206.235 85.8007 206.971 85.8007H207.931C208.667 85.8007 209.291 86.0727 209.802 86.6167C210.347 87.1607 210.619 87.8007 210.619 88.5367V108.025C210.619 108.761 210.347 109.401 209.802 109.945C209.291 110.489 208.667 110.761 207.931 110.761H207.307C206.539 110.761 205.883 110.505 205.339 109.993C204.827 109.449 204.555 108.793 204.523 108.025L204.475 107.689C204.475 107.657 204.459 107.641 204.427 107.641C204.395 107.641 204.363 107.657 204.331 107.689C202.155 110.057 199.611 111.241 196.699 111.241ZM219.97 110.761C219.234 110.761 218.594 110.489 218.05 109.945C217.506 109.401 217.234 108.761 217.234 108.025V88.5367C217.234 87.8007 217.506 87.1607 218.05 86.6167C218.594 86.0727 219.234 85.8007 219.97 85.8007H220.93C221.666 85.8007 222.306 86.0727 222.85 86.6167C223.394 87.1607 223.666 87.8007 223.666 88.5367V90.5527C223.666 90.5847 223.682 90.6007 223.714 90.6007C223.778 90.6007 223.81 90.5847 223.81 90.5527C224.738 89.2727 225.954 88.2327 227.458 87.4327C228.962 86.6007 230.61 86.0887 232.402 85.8967C233.074 85.8327 233.65 86.0567 234.13 86.5687C234.61 87.0487 234.85 87.6247 234.85 88.2967C234.85 88.9687 234.61 89.5447 234.13 90.0247C233.65 90.5047 233.074 90.7767 232.402 90.8407C226.738 91.2887 223.906 94.1687 223.906 99.4807V108.025C223.906 108.761 223.634 109.401 223.09 109.945C222.546 110.489 221.906 110.761 221.17 110.761H219.97Z" fill="#00F0FF"/>
<path d="M176 91.9927L174.354 93.1291L174.37 93.1517L174.386 93.1738L176 91.9927ZM167.504 91.9927L165.877 90.8303L165.871 90.8378L167.504 91.9927ZM167.504 104.617L165.858 105.753L165.874 105.776L165.89 105.798L167.504 104.617ZM176 104.617L174.373 103.454L174.367 103.462L176 104.617ZM180.704 107.881L179.249 106.508L179.249 106.509L180.704 107.881ZM162.8 107.881L161.335 109.242L161.345 109.253L161.355 109.264L162.8 107.881ZM162.8 88.7287L161.345 87.3561L161.345 87.3567L162.8 88.7287ZM180.704 88.7287L179.239 90.0904L179.249 90.1011L179.259 90.1117L180.704 88.7287ZM177.646 90.8564C176.282 88.881 174.203 87.9767 171.776 87.9767V91.9767C173.125 91.9767 173.862 92.4165 174.354 93.1291L177.646 90.8564ZM171.776 87.9767C169.349 87.9767 167.27 88.8797 165.877 90.8303L169.131 93.1552C169.658 92.4178 170.427 91.9767 171.776 91.9767V87.9767ZM165.871 90.8378C164.58 92.6637 164.112 95.274 164.112 98.2807H168.112C168.112 95.5275 168.572 93.9458 169.137 93.1477L165.871 90.8378ZM164.112 98.2807C164.112 101.294 164.582 103.905 165.858 105.753L169.15 103.48C168.57 102.64 168.112 101.027 168.112 98.2807H164.112ZM165.89 105.798C167.291 107.712 169.368 108.585 171.776 108.585V104.585C170.408 104.585 169.637 104.145 169.118 103.436L165.89 105.798ZM171.776 108.585C174.183 108.585 176.261 107.711 177.633 105.772L174.367 103.462C173.883 104.146 173.145 104.585 171.776 104.585V108.585ZM177.627 105.779C178.952 103.925 179.44 101.302 179.44 98.2807H175.44C175.44 101.019 174.968 102.62 174.373 103.454L177.627 105.779ZM179.44 98.2807C179.44 95.2655 178.954 92.6431 177.614 90.8117L174.386 93.1738C174.966 93.9664 175.44 95.5359 175.44 98.2807H179.44ZM179.249 106.509C177.604 108.253 175.211 109.241 171.776 109.241V113.241C176.021 113.241 179.58 111.988 182.159 109.253L179.249 106.509ZM171.776 109.241C168.343 109.241 165.925 108.254 164.245 106.498L161.355 109.264C163.963 111.988 167.529 113.241 171.776 113.241V109.241ZM164.265 106.519C162.598 104.726 161.632 102.074 161.632 98.2807H157.632C157.632 102.743 158.778 106.492 161.335 109.242L164.265 106.519ZM161.632 98.2807C161.632 94.4852 162.598 91.8579 164.255 90.1008L161.345 87.3567C158.778 90.0796 157.632 93.8203 157.632 98.2807H161.632ZM164.255 90.1014C165.937 88.3186 168.351 87.3207 171.776 87.3207V83.3207C167.521 83.3207 163.951 84.5949 161.345 87.3561L164.255 90.1014ZM171.776 87.3207C175.202 87.3207 177.592 88.3188 179.239 90.0904L182.169 87.367C179.592 84.5946 176.03 83.3207 171.776 83.3207V87.3207ZM179.259 90.1117C180.942 91.8696 181.92 94.4927 181.92 98.2807H185.92C185.92 93.8128 184.754 90.0679 182.149 87.3458L179.259 90.1117ZM181.92 98.2807C181.92 102.067 180.942 104.714 179.249 106.508L182.159 109.253C184.754 106.503 185.92 102.751 185.92 98.2807H181.92ZM190.555 108.937L189.005 110.201L189.012 110.209L189.018 110.217L190.555 108.937ZM189.451 86.6167L190.865 88.031L190.865 88.031L189.451 86.6167ZM194.059 86.6167L192.644 88.031L192.644 88.031L194.059 86.6167ZM195.787 105.001L197.422 103.85L197.422 103.85L195.787 105.001ZM202.507 104.617L201.112 103.183L201.102 103.193L201.092 103.203L202.507 104.617ZM205.051 86.6167L206.465 88.031L206.465 88.031L205.051 86.6167ZM209.802 86.6167L208.346 87.9875L208.367 88.0095L208.388 88.031L209.802 86.6167ZM209.802 109.945L208.388 108.531L208.367 108.552L208.346 108.574L209.802 109.945ZM205.339 109.993L203.882 111.363L203.924 111.408L203.968 111.449L205.339 109.993ZM204.523 108.025L206.521 107.941L206.517 107.841L206.502 107.742L204.523 108.025ZM204.475 107.689H202.475V107.831L202.495 107.972L204.475 107.689ZM204.331 107.689L202.916 106.275L202.886 106.304L202.858 106.335L204.331 107.689ZM196.699 109.241C194.223 109.241 192.854 108.572 192.091 107.656L189.018 110.217C190.815 112.373 193.542 113.241 196.699 113.241V109.241ZM192.104 107.672C191.275 106.656 190.635 104.606 190.635 101.017H186.635C186.635 104.851 187.274 108.081 189.005 110.201L192.104 107.672ZM190.635 101.017V88.5367H186.635V101.017H190.635ZM190.635 88.5367C190.635 88.3574 190.677 88.2188 190.865 88.031L188.036 85.2025C187.136 86.1027 186.635 87.2441 186.635 88.5367H190.635ZM190.865 88.031C191.053 87.8431 191.191 87.8007 191.371 87.8007V83.8007C190.078 83.8007 188.936 84.3024 188.036 85.2025L190.865 88.031ZM191.371 87.8007H192.139V83.8007H191.371V87.8007ZM192.139 87.8007C192.318 87.8007 192.456 87.8431 192.644 88.031L195.473 85.2025C194.573 84.3024 193.431 83.8007 192.139 83.8007V87.8007ZM192.644 88.031C192.832 88.2188 192.875 88.3574 192.875 88.5367H196.875C196.875 87.2441 196.373 86.1027 195.473 85.2025L192.644 88.031ZM192.875 88.5367V100.345H196.875V88.5367H192.875ZM192.875 100.345C192.875 102.624 193.156 104.739 194.151 106.152L197.422 103.85C197.201 103.535 196.875 102.545 196.875 100.345H192.875ZM194.151 106.152C195.26 107.728 197.025 108.297 198.859 108.297V104.297C197.812 104.297 197.529 104.001 197.422 103.85L194.151 106.152ZM198.859 108.297C200.808 108.297 202.509 107.443 203.921 106.031L201.092 103.203C200.264 104.03 199.533 104.297 198.859 104.297V108.297ZM203.901 106.051C205.335 104.656 206.235 102.967 206.235 101.017H202.235C202.235 101.626 201.982 102.337 201.112 103.183L203.901 106.051ZM206.235 101.017V88.5367H202.235V101.017H206.235ZM206.235 88.5367C206.235 88.3574 206.277 88.2188 206.465 88.031L203.636 85.2025C202.736 86.1027 202.235 87.2441 202.235 88.5367H206.235ZM206.465 88.031C206.653 87.8431 206.791 87.8007 206.971 87.8007V83.8007C205.678 83.8007 204.536 84.3024 203.636 85.2025L206.465 88.031ZM206.971 87.8007H207.931V83.8007H206.971V87.8007ZM207.931 87.8007C208.106 87.8007 208.206 87.8382 208.346 87.9875L211.259 85.246C210.375 84.3073 209.227 83.8007 207.931 83.8007V87.8007ZM208.388 88.031C208.576 88.2188 208.619 88.3574 208.619 88.5367H212.619C212.619 87.2441 212.117 86.1027 211.217 85.2025L208.388 88.031ZM208.619 88.5367V108.025H212.619V88.5367H208.619ZM208.619 108.025C208.619 108.204 208.576 108.343 208.388 108.531L211.217 111.359C212.117 110.459 212.619 109.317 212.619 108.025H208.619ZM208.346 108.574C208.206 108.723 208.106 108.761 207.931 108.761V112.761C209.227 112.761 210.375 112.254 211.259 111.315L208.346 108.574ZM207.931 108.761H207.307V112.761H207.931V108.761ZM207.307 108.761C207.032 108.761 206.871 108.688 206.709 108.536L203.968 111.449C204.894 112.321 206.045 112.761 207.307 112.761V108.761ZM206.795 108.622C206.623 108.439 206.533 108.244 206.521 107.941L202.524 108.108C202.576 109.341 203.03 110.458 203.882 111.363L206.795 108.622ZM206.502 107.742L206.454 107.406L202.495 107.972L202.543 108.308L206.502 107.742ZM206.475 107.689C206.475 107.364 206.392 106.754 205.877 106.239C205.361 105.723 204.751 105.641 204.427 105.641V109.641C204.134 109.641 203.548 109.566 203.048 109.067C202.549 108.568 202.475 107.981 202.475 107.689H206.475ZM204.427 105.641C203.677 105.641 203.166 106.025 202.916 106.275L205.745 109.103C205.559 109.289 205.112 109.641 204.427 109.641V105.641ZM202.858 106.335C201.017 108.339 198.989 109.241 196.699 109.241V113.241C200.232 113.241 203.292 111.774 205.803 109.042L202.858 106.335ZM218.05 109.945L216.636 111.359L216.636 111.359L218.05 109.945ZM218.05 86.6167L219.464 88.031L219.464 88.031L218.05 86.6167ZM222.85 86.6167L221.436 88.031L221.436 88.031L222.85 86.6167ZM223.81 90.5527L222.191 89.3788L221.81 89.904V90.5527H223.81ZM227.458 87.4327L228.397 89.1985L228.412 89.1908L228.426 89.1828L227.458 87.4327ZM232.402 85.8967L232.212 83.9058L232.201 83.9069L232.189 83.9081L232.402 85.8967ZM234.13 86.5687L232.671 87.9366L232.693 87.9602L232.716 87.983L234.13 86.5687ZM234.13 90.0247L235.544 91.439L235.544 91.439L234.13 90.0247ZM232.402 90.8407L232.56 92.8345L232.576 92.8333L232.591 92.8317L232.402 90.8407ZM223.09 109.945L224.504 111.359L224.504 111.359L223.09 109.945ZM219.97 108.761C219.79 108.761 219.652 108.718 219.464 108.531L216.636 111.359C217.536 112.259 218.677 112.761 219.97 112.761V108.761ZM219.464 108.531C219.276 108.343 219.234 108.204 219.234 108.025H215.234C215.234 109.317 215.736 110.459 216.636 111.359L219.464 108.531ZM219.234 108.025V88.5367H215.234V108.025H219.234ZM219.234 88.5367C219.234 88.3574 219.276 88.2188 219.464 88.031L216.636 85.2025C215.736 86.1027 215.234 87.2441 215.234 88.5367H219.234ZM219.464 88.031C219.652 87.8431 219.79 87.8007 219.97 87.8007V83.8007C218.677 83.8007 217.536 84.3024 216.636 85.2025L219.464 88.031ZM219.97 87.8007H220.93V83.8007H219.97V87.8007ZM220.93 87.8007C221.109 87.8007 221.248 87.8431 221.436 88.031L224.264 85.2025C223.364 84.3024 222.222 83.8007 220.93 83.8007V87.8007ZM221.436 88.031C221.624 88.2188 221.666 88.3574 221.666 88.5367H225.666C225.666 87.2441 225.164 86.1027 224.264 85.2025L221.436 88.031ZM221.666 88.5367V90.5527H225.666V88.5367H221.666ZM221.666 90.5527C221.666 90.877 221.748 91.4876 222.264 92.0029C222.779 92.5183 223.39 92.6007 223.714 92.6007V88.6007C224.006 88.6007 224.593 88.6752 225.092 89.1745C225.591 89.6739 225.666 90.2605 225.666 90.5527H221.666ZM223.714 92.6007C223.848 92.6007 224.246 92.5946 224.68 92.3776C224.926 92.255 225.23 92.0406 225.468 91.6831C225.715 91.3131 225.81 90.9107 225.81 90.5527H221.81C221.81 90.2108 221.901 89.8223 222.14 89.4644C222.37 89.1189 222.662 88.9145 222.891 88.7999C223.293 88.5989 223.644 88.6007 223.714 88.6007V92.6007ZM225.429 91.7267C226.165 90.7119 227.141 89.8668 228.397 89.1985L226.519 85.667C224.767 86.5986 223.311 87.8336 222.191 89.3788L225.429 91.7267ZM228.426 89.1828C229.685 88.4861 231.075 88.0504 232.615 87.8854L232.189 83.9081C230.145 84.1271 228.238 84.7154 226.49 85.6827L228.426 89.1828ZM232.591 87.8877C232.622 87.8848 232.635 87.8867 232.634 87.8865C232.631 87.8862 232.623 87.8847 232.613 87.8808C232.603 87.8769 232.601 87.8745 232.608 87.8795C232.616 87.885 232.638 87.9013 232.671 87.9366L235.589 85.2009C234.705 84.258 233.529 83.7804 232.212 83.9058L232.591 87.8877ZM232.716 87.983C232.825 88.0922 232.85 88.1612 232.85 88.2967H236.85C236.85 87.0883 236.395 86.0053 235.544 85.1545L232.716 87.983ZM232.85 88.2967C232.85 88.4323 232.825 88.5013 232.716 88.6105L235.544 91.439C236.395 90.5882 236.85 89.5052 236.85 88.2967H232.85ZM232.716 88.6105C232.562 88.7638 232.419 88.8301 232.212 88.8498L232.591 92.8317C233.729 92.7234 234.737 92.2457 235.544 91.439L232.716 88.6105ZM232.244 88.847C229.126 89.0936 226.473 90.0339 224.604 91.9345C222.715 93.855 221.906 96.4713 221.906 99.4807H225.906C225.906 97.1782 226.512 95.6984 227.456 94.739C228.419 93.7595 230.014 93.0359 232.56 92.8345L232.244 88.847ZM221.906 99.4807V108.025H225.906V99.4807H221.906ZM221.906 108.025C221.906 108.204 221.864 108.343 221.676 108.531L224.504 111.359C225.404 110.459 225.906 109.317 225.906 108.025H221.906ZM221.676 108.531C221.488 108.718 221.349 108.761 221.17 108.761V112.761C222.462 112.761 223.604 112.259 224.504 111.359L221.676 108.531ZM221.17 108.761H219.97V112.761H221.17V108.761Z" fill="white"/>
<path d="M206.64 135.975C205.659 135.975 204.805 135.613 204.08 134.887C203.397 134.162 203.056 133.309 203.056 132.327V92.9035C203.056 91.9221 203.397 91.0688 204.08 90.3435C204.805 89.6181 205.659 89.2555 206.64 89.2555H208.368C209.349 89.2555 210.203 89.6181 210.928 90.3435C211.653 91.0688 212.016 91.9221 212.016 92.9035V107.431C212.016 107.773 212.187 107.943 212.528 107.943H228.528C228.869 107.943 229.04 107.773 229.04 107.431V92.9035C229.04 91.9221 229.403 91.0688 230.128 90.3435C230.853 89.6181 231.707 89.2555 232.688 89.2555H234.416C235.397 89.2555 236.229 89.6181 236.912 90.3435C237.637 91.0688 238 91.9221 238 92.9035V132.327C238 133.309 237.637 134.162 236.912 134.887C236.229 135.613 235.397 135.975 234.416 135.975H232.688C231.707 135.975 230.853 135.613 230.128 134.887C229.403 134.162 229.04 133.309 229.04 132.327V115.367C229.04 114.983 228.869 114.791 228.528 114.791H212.528C212.187 114.791 212.016 114.983 212.016 115.367V132.327C212.016 133.309 211.653 134.162 210.928 134.887C210.203 135.613 209.349 135.975 208.368 135.975H206.64ZM264.183 97.1915L258.551 117.287C258.508 117.415 258.529 117.543 258.615 117.671C258.7 117.799 258.807 117.863 258.935 117.863H269.559C269.687 117.863 269.793 117.799 269.879 117.671C269.964 117.543 269.985 117.415 269.943 117.287L264.311 97.1915C264.311 97.1488 264.289 97.1275 264.247 97.1275C264.204 97.1275 264.183 97.1488 264.183 97.1915ZM247.607 135.975C246.711 135.975 246.007 135.613 245.495 134.887C244.983 134.162 244.876 133.373 245.174 132.519L258.423 92.7115C258.807 91.6875 259.425 90.8555 260.279 90.2155C261.175 89.5755 262.156 89.2555 263.223 89.2555H265.527C266.636 89.2555 267.617 89.5755 268.471 90.2155C269.367 90.8555 269.985 91.6875 270.327 92.7115L283.575 132.519C283.873 133.373 283.767 134.162 283.255 134.887C282.743 135.613 282.039 135.975 281.143 135.975H278.839C277.815 135.975 276.855 135.655 275.958 135.015C275.105 134.333 274.529 133.479 274.231 132.455L272.183 125.223C272.14 124.882 271.905 124.711 271.479 124.711H257.015C256.631 124.711 256.396 124.882 256.311 125.223L254.263 132.455C254.007 133.479 253.431 134.333 252.535 135.015C251.681 135.655 250.721 135.975 249.655 135.975H247.607ZM307.066 136.615C300.324 136.615 294.97 134.546 291.002 130.407C287.076 126.226 285.114 120.295 285.114 112.615C285.114 105.021 287.012 99.1328 290.81 94.9515C294.65 90.7275 300.004 88.6155 306.874 88.6155C310.031 88.6155 312.676 88.8075 314.81 89.1915C315.834 89.3621 316.687 89.8741 317.37 90.7275C318.052 91.5808 318.394 92.5408 318.394 93.6075V94.1195C318.394 95.0155 318.01 95.7195 317.242 96.2315C316.516 96.7435 315.727 96.8928 314.874 96.6795C312.783 96.1248 310.436 95.8475 307.834 95.8475C303.61 95.8475 300.282 97.2981 297.85 100.199C295.46 103.101 294.266 107.239 294.266 112.615C294.266 117.949 295.503 122.087 297.978 125.031C300.495 127.933 303.844 129.383 308.026 129.383C310.842 129.383 313.252 129.127 315.257 128.615C316.111 128.402 316.9 128.551 317.626 129.063C318.394 129.575 318.778 130.279 318.778 131.175V131.623C318.778 132.69 318.436 133.65 317.754 134.503C317.114 135.314 316.26 135.805 315.194 135.975C312.762 136.402 310.052 136.615 307.066 136.615ZM332.14 135.975C331.159 135.975 330.305 135.613 329.58 134.887C328.897 134.162 328.556 133.309 328.556 132.327V92.9035C328.556 91.9221 328.897 91.0688 329.58 90.3435C330.305 89.6181 331.159 89.2555 332.14 89.2555H333.868C334.849 89.2555 335.703 89.6181 336.428 90.3435C337.153 91.0688 337.516 91.9221 337.516 92.9035V109.479C337.516 109.522 337.537 109.543 337.58 109.543C337.623 109.543 337.644 109.522 337.644 109.479L350.508 92.1995C351.916 90.2368 353.836 89.2555 356.268 89.2555H359.468C360.193 89.2555 360.727 89.5968 361.068 90.2795C361.409 90.9621 361.345 91.5808 360.876 92.1355L346.156 111.207C345.943 111.506 345.943 111.805 346.156 112.103L361.58 133.031C362.049 133.629 362.113 134.269 361.772 134.951C361.431 135.634 360.876 135.975 360.108 135.975H356.908C354.476 135.975 352.577 134.994 351.212 133.031L337.644 113.831C337.644 113.789 337.623 113.767 337.58 113.767C337.537 113.767 337.516 113.789 337.516 113.831V132.327C337.516 133.309 337.153 134.162 336.428 134.887C335.703 135.613 334.849 135.975 333.868 135.975H332.14Z" fill="#9F00EA" fill-opacity="0.8"/>
<path d="M204.08 134.887L202.624 136.258L202.644 136.28L202.666 136.302L204.08 134.887ZM204.08 90.3435L202.666 88.9292L202.644 88.9507L202.624 88.9727L204.08 90.3435ZM210.928 90.3435L212.342 88.9292L212.342 88.9292L210.928 90.3435ZM230.128 90.3435L228.714 88.9292L228.714 88.9292L230.128 90.3435ZM236.912 90.3435L235.456 91.7142L235.476 91.7363L235.498 91.7577L236.912 90.3435ZM236.912 134.887L235.498 133.473L235.476 133.495L235.456 133.517L236.912 134.887ZM206.64 133.975C206.215 133.975 205.863 133.842 205.494 133.473L202.666 136.302C203.747 137.383 205.102 137.975 206.64 137.975V133.975ZM205.536 133.517C205.197 133.156 205.056 132.791 205.056 132.327H201.056C201.056 133.827 201.598 135.168 202.624 136.258L205.536 133.517ZM205.056 132.327V92.9035H201.056V132.327H205.056ZM205.056 92.9035C205.056 92.44 205.197 92.0747 205.536 91.7142L202.624 88.9727C201.598 90.0629 201.056 91.4042 201.056 92.9035H205.056ZM205.494 91.7577C205.863 91.3885 206.215 91.2555 206.64 91.2555V87.2555C205.102 87.2555 203.747 87.8478 202.666 88.9292L205.494 91.7577ZM206.64 91.2555H208.368V87.2555H206.64V91.2555ZM208.368 91.2555C208.793 91.2555 209.145 91.3885 209.514 91.7577L212.342 88.9292C211.261 87.8478 209.906 87.2555 208.368 87.2555V91.2555ZM209.514 91.7577C209.883 92.1269 210.016 92.4787 210.016 92.9035H214.016C214.016 91.3655 213.424 90.0107 212.342 88.9292L209.514 91.7577ZM210.016 92.9035V107.431H214.016V92.9035H210.016ZM210.016 107.431C210.016 107.91 210.137 108.637 210.73 109.23C211.322 109.822 212.049 109.943 212.528 109.943V105.943C212.666 105.943 213.136 105.979 213.558 106.401C213.98 106.823 214.016 107.294 214.016 107.431H210.016ZM212.528 109.943H228.528V105.943H212.528V109.943ZM228.528 109.943C229.007 109.943 229.734 109.822 230.326 109.23C230.919 108.637 231.04 107.91 231.04 107.431H227.04C227.04 107.294 227.076 106.823 227.498 106.401C227.92 105.979 228.39 105.943 228.528 105.943V109.943ZM231.04 107.431V92.9035H227.04V107.431H231.04ZM231.04 92.9035C231.04 92.4787 231.173 92.1269 231.542 91.7577L228.714 88.9292C227.632 90.0107 227.04 91.3655 227.04 92.9035H231.04ZM231.542 91.7577C231.911 91.3885 232.263 91.2555 232.688 91.2555V87.2555C231.15 87.2555 229.795 87.8478 228.714 88.9292L231.542 91.7577ZM232.688 91.2555H234.416V87.2555H232.688V91.2555ZM234.416 91.2555C234.837 91.2555 235.144 91.3836 235.456 91.7142L238.368 88.9727C237.314 87.8527 235.958 87.2555 234.416 87.2555V91.2555ZM235.498 91.7577C235.867 92.1269 236 92.4787 236 92.9035H240C240 91.3655 239.408 90.0107 238.326 88.9292L235.498 91.7577ZM236 92.9035V132.327H240V92.9035H236ZM236 132.327C236 132.752 235.867 133.104 235.498 133.473L238.326 136.302C239.408 135.22 240 133.865 240 132.327H236ZM235.456 133.517C235.144 133.847 234.837 133.975 234.416 133.975V137.975C235.958 137.975 237.314 137.378 238.368 136.258L235.456 133.517ZM234.416 133.975H232.688V137.975H234.416V133.975ZM232.688 133.975C232.263 133.975 231.911 133.842 231.542 133.473L228.714 136.302C229.795 137.383 231.15 137.975 232.688 137.975V133.975ZM231.542 133.473C231.173 133.104 231.04 132.752 231.04 132.327H227.04C227.04 133.865 227.632 135.22 228.714 136.302L231.542 133.473ZM231.04 132.327V115.367H227.04V132.327H231.04ZM231.04 115.367C231.04 114.921 230.946 114.213 230.407 113.607C229.828 112.955 229.072 112.791 228.528 112.791V116.791C228.325 116.791 227.826 116.724 227.417 116.264C227.049 115.85 227.04 115.43 227.04 115.367H231.04ZM228.528 112.791H212.528V116.791H228.528V112.791ZM212.528 112.791C211.984 112.791 211.228 112.955 210.649 113.607C210.11 114.213 210.016 114.921 210.016 115.367H214.016C214.016 115.43 214.007 115.85 213.639 116.264C213.23 116.724 212.731 116.791 212.528 116.791V112.791ZM210.016 115.367V132.327H214.016V115.367H210.016ZM210.016 132.327C210.016 132.752 209.883 133.104 209.514 133.473L212.342 136.302C213.424 135.22 214.016 133.865 214.016 132.327H210.016ZM209.514 133.473C209.145 133.842 208.793 133.975 208.368 133.975V137.975C209.906 137.975 211.261 137.383 212.342 136.302L209.514 133.473ZM208.368 133.975H206.64V137.975H208.368V133.975ZM264.183 97.1915L266.108 97.7312L266.183 97.4664V97.1915H264.183ZM258.551 117.287L260.448 117.92L260.463 117.874L260.476 117.827L258.551 117.287ZM258.615 117.671L260.279 116.562L260.279 116.562L258.615 117.671ZM269.943 117.287L268.017 117.827L268.03 117.874L268.045 117.92L269.943 117.287ZM264.311 97.1915H262.311V97.4664L262.385 97.7312L264.311 97.1915ZM245.495 134.887L247.128 133.734L247.128 133.734L245.495 134.887ZM245.174 132.519L247.062 133.18L247.067 133.166L247.072 133.151L245.174 132.519ZM258.423 92.7115L256.55 92.0092L256.537 92.0443L256.525 92.0799L258.423 92.7115ZM260.279 90.2155L259.116 88.588L259.097 88.6015L259.079 88.6155L260.279 90.2155ZM268.471 90.2155L267.271 91.8155L267.289 91.8294L267.308 91.8429L268.471 90.2155ZM270.327 92.7115L272.224 92.0799L272.224 92.079L270.327 92.7115ZM283.575 132.519L281.677 133.151L281.682 133.166L281.687 133.18L283.575 132.519ZM283.255 134.887L281.621 133.734L281.621 133.734L283.255 134.887ZM275.958 135.015L274.709 136.577L274.752 136.611L274.796 136.643L275.958 135.015ZM274.231 132.455L272.306 133L272.308 133.008L272.311 133.015L274.231 132.455ZM272.183 125.223L270.198 125.472L270.217 125.622L270.258 125.768L272.183 125.223ZM256.311 125.223L258.235 125.768L258.243 125.739L258.251 125.709L256.311 125.223ZM254.263 132.455L252.338 131.911L252.33 131.94L252.322 131.97L254.263 132.455ZM252.535 135.015L253.735 136.615L253.741 136.611L253.747 136.606L252.535 135.015ZM262.257 96.6517L256.625 116.748L260.476 117.827L266.108 97.7312L262.257 96.6517ZM256.653 116.655C256.386 117.456 256.577 118.221 256.95 118.781L260.279 116.562C260.364 116.69 260.464 116.889 260.507 117.151C260.552 117.421 260.525 117.687 260.448 117.92L256.653 116.655ZM256.95 118.781C257.321 119.336 257.996 119.863 258.935 119.863V115.863C259.222 115.863 259.521 115.94 259.787 116.1C260.041 116.253 260.195 116.437 260.279 116.562L256.95 118.781ZM258.935 119.863H269.559V115.863H258.935V119.863ZM269.559 119.863C270.497 119.863 271.172 119.336 271.543 118.781L268.214 116.562C268.298 116.437 268.452 116.253 268.706 116.1C268.972 115.94 269.271 115.863 269.559 115.863V119.863ZM271.543 118.781C271.916 118.221 272.107 117.456 271.84 116.655L268.045 117.92C267.968 117.687 267.941 117.421 267.986 117.151C268.029 116.889 268.129 116.69 268.214 116.562L271.543 118.781ZM271.868 116.748L266.236 96.6517L262.385 97.7312L268.017 117.827L271.868 116.748ZM266.311 97.1915C266.311 96.8619 266.227 96.2473 265.709 95.7293C265.191 95.2112 264.576 95.1275 264.247 95.1275V99.1275C263.96 99.1275 263.377 99.0544 262.88 98.5576C262.384 98.0609 262.311 97.4784 262.311 97.1915H266.311ZM264.247 95.1275C263.917 95.1275 263.302 95.2112 262.784 95.7293C262.266 96.2473 262.183 96.8619 262.183 97.1915H266.183C266.183 97.4784 266.109 98.061 265.613 98.5577C265.116 99.0544 264.533 99.1275 264.247 99.1275V95.1275ZM247.607 133.975C247.435 133.975 247.356 133.943 247.322 133.926C247.29 133.909 247.222 133.866 247.128 133.734L243.861 136.041C244.751 137.303 246.068 137.975 247.607 137.975V133.975ZM247.128 133.734C246.997 133.548 246.972 133.437 247.062 133.18L243.287 131.859C242.779 133.309 242.968 134.776 243.861 136.041L247.128 133.734ZM247.072 133.151L260.32 93.343L256.525 92.0799L243.277 131.888L247.072 133.151ZM260.295 93.4137C260.549 92.7375 260.938 92.2205 261.479 91.8155L259.079 88.6155C257.912 89.4905 257.064 90.6375 256.55 92.0092L260.295 93.4137ZM261.441 91.8429C262.009 91.4369 262.587 91.2555 263.223 91.2555V87.2555C261.725 87.2555 260.34 87.7141 259.116 88.588L261.441 91.8429ZM263.223 91.2555H265.527V87.2555H263.223V91.2555ZM265.527 91.2555C266.222 91.2555 266.778 91.446 267.271 91.8155L269.67 88.6155C268.456 87.7049 267.05 87.2555 265.527 87.2555V91.2555ZM267.308 91.8429C267.867 92.2426 268.224 92.7295 268.429 93.3439L272.224 92.079C271.746 90.6454 270.866 89.4684 269.633 88.588L267.308 91.8429ZM268.429 93.343L281.677 133.151L285.472 131.888L272.224 92.0799L268.429 93.343ZM281.687 133.18C281.777 133.437 281.752 133.548 281.621 133.734L284.888 136.041C285.781 134.776 285.97 133.309 285.462 131.859L281.687 133.18ZM281.621 133.734C281.527 133.866 281.459 133.909 281.427 133.926C281.393 133.943 281.314 133.975 281.143 133.975V137.975C282.681 137.975 283.998 137.303 284.888 136.041L281.621 133.734ZM281.143 133.975H278.839V137.975H281.143V133.975ZM278.839 133.975C278.263 133.975 277.705 133.805 277.121 133.388L274.796 136.643C276.004 137.506 277.366 137.975 278.839 137.975V133.975ZM277.208 133.454C276.667 133.021 276.331 132.514 276.151 131.895L272.311 133.015C272.727 134.445 273.543 135.644 274.709 136.577L277.208 133.454ZM276.155 131.911L274.107 124.679L270.258 125.768L272.306 133L276.155 131.911ZM274.167 124.975C274.091 124.367 273.798 123.693 273.151 123.222C272.565 122.796 271.925 122.711 271.479 122.711V126.711C271.459 126.711 271.149 126.712 270.798 126.457C270.386 126.157 270.231 125.739 270.198 125.472L274.167 124.975ZM271.479 122.711H257.015V126.711H271.479V122.711ZM257.015 122.711C256.535 122.711 255.929 122.819 255.374 123.222C254.801 123.639 254.502 124.213 254.37 124.738L258.251 125.709C258.205 125.893 258.065 126.211 257.727 126.457C257.407 126.69 257.11 126.711 257.015 126.711V122.711ZM254.386 124.679L252.338 131.911L256.187 133L258.235 125.768L254.386 124.679ZM252.322 131.97C252.184 132.523 251.883 132.997 251.322 133.425L253.747 136.606C254.978 135.668 255.829 134.436 256.203 132.941L252.322 131.97ZM251.334 133.415C250.827 133.796 250.288 133.975 249.655 133.975V137.975C251.154 137.975 252.535 137.515 253.735 136.615L251.334 133.415ZM249.655 133.975H247.607V137.975H249.655V133.975ZM291.002 130.407L289.543 131.776L289.551 131.784L289.558 131.792L291.002 130.407ZM290.81 94.9515L289.33 93.6061L289.329 93.6069L290.81 94.9515ZM314.81 89.1915L314.455 91.1598L314.468 91.1621L314.481 91.1643L314.81 89.1915ZM317.37 90.7275L318.931 89.4781L318.931 89.4781L317.37 90.7275ZM317.242 96.2315L316.132 94.5674L316.11 94.5821L316.088 94.5975L317.242 96.2315ZM314.874 96.6795L314.361 98.6126L314.375 98.6163L314.388 98.6197L314.874 96.6795ZM297.85 100.199L296.317 98.9147L296.311 98.9213L296.306 98.928L297.85 100.199ZM297.978 125.031L296.447 126.318L296.457 126.33L296.467 126.342L297.978 125.031ZM315.257 128.615L314.772 126.675L314.763 126.678L315.257 128.615ZM317.626 129.063L316.472 130.697L316.494 130.713L316.516 130.728L317.626 129.063ZM317.754 134.503L316.192 133.254L316.184 133.264L317.754 134.503ZM315.194 135.975L314.878 134.001L314.863 134.003L314.848 134.006L315.194 135.975ZM307.066 134.615C300.765 134.615 295.97 132.699 292.445 129.023L289.558 131.792C293.969 136.393 299.883 138.615 307.066 138.615V134.615ZM292.46 129.039C288.987 125.339 287.114 119.963 287.114 112.615H283.114C283.114 120.628 285.166 127.113 289.543 131.776L292.46 129.039ZM287.114 112.615C287.114 105.344 288.928 99.9982 292.29 96.2961L289.329 93.6069C285.096 98.2674 283.114 104.698 283.114 112.615H287.114ZM292.289 96.2968C295.674 92.5737 300.443 90.6155 306.874 90.6155V86.6155C299.565 86.6155 293.625 88.8812 289.33 93.6061L292.289 96.2968ZM306.874 90.6155C309.961 90.6155 312.478 90.804 314.455 91.1598L315.164 87.2231C312.874 86.8109 310.101 86.6155 306.874 86.6155V90.6155ZM314.481 91.1643C314.991 91.2494 315.415 91.4861 315.808 91.9769L318.931 89.4781C317.958 88.2621 316.676 87.4749 315.138 87.2187L314.481 91.1643ZM315.808 91.9769C316.214 92.485 316.394 93.0069 316.394 93.6075H320.394C320.394 92.0747 319.89 90.6766 318.931 89.4781L315.808 91.9769ZM316.394 93.6075V94.1195H320.394V93.6075H316.394ZM316.394 94.1195C316.394 94.2728 316.363 94.3367 316.35 94.3618C316.335 94.3892 316.288 94.4637 316.132 94.5674L318.351 97.8956C319.655 97.0261 320.394 95.708 320.394 94.1195H316.394ZM316.088 94.5975C315.833 94.7775 315.641 94.8098 315.359 94.7392L314.388 98.6197C315.813 98.9758 317.199 98.7095 318.395 97.8654L316.088 94.5975ZM315.386 94.7463C313.099 94.1394 310.575 93.8475 307.834 93.8475V97.8475C310.297 97.8475 312.467 98.1102 314.361 98.6126L315.386 94.7463ZM307.834 93.8475C303.095 93.8475 299.176 95.504 296.317 98.9147L299.382 101.484C301.387 99.0922 304.124 97.8475 307.834 97.8475V93.8475ZM296.306 98.928C293.517 102.314 292.266 106.971 292.266 112.615H296.266C296.266 107.508 297.403 103.888 299.393 101.471L296.306 98.928ZM292.266 112.615C292.266 118.239 293.57 122.896 296.447 126.318L299.508 123.745C297.436 121.279 296.266 117.659 296.266 112.615H292.266ZM296.467 126.342C299.4 129.723 303.322 131.383 308.026 131.383V127.383C304.366 127.383 301.589 126.142 299.488 123.721L296.467 126.342ZM308.026 131.383C310.953 131.383 313.539 131.118 315.752 130.553L314.763 126.678C312.965 127.137 310.73 127.383 308.026 127.383V131.383ZM315.743 130.556C316.025 130.485 316.217 130.517 316.472 130.697L318.779 127.43C317.583 126.585 316.197 126.319 314.772 126.675L315.743 130.556ZM316.516 130.728C316.672 130.831 316.719 130.906 316.734 130.933C316.747 130.958 316.778 131.022 316.778 131.175H320.778C320.778 129.587 320.039 128.269 318.735 127.399L316.516 130.728ZM316.778 131.175V131.623H320.778V131.175H316.778ZM316.778 131.623C316.778 132.224 316.598 132.746 316.192 133.254L319.315 135.753C320.274 134.554 320.778 133.156 320.778 131.623H316.778ZM316.184 133.264C315.87 133.662 315.474 133.905 314.878 134.001L315.509 137.95C317.047 137.704 318.357 136.967 319.323 135.743L316.184 133.264ZM314.848 134.006C312.551 134.409 309.959 134.615 307.066 134.615V138.615C310.145 138.615 312.972 138.396 315.539 137.945L314.848 134.006ZM329.58 134.887L328.124 136.258L328.144 136.28L328.166 136.302L329.58 134.887ZM329.58 90.3435L328.166 88.9292L328.144 88.9507L328.124 88.9727L329.58 90.3435ZM336.428 90.3435L337.842 88.9292L337.842 88.9292L336.428 90.3435ZM337.644 109.479L336.04 108.285L335.644 108.817V109.479H337.644ZM350.508 92.1995L352.112 93.3938L352.123 93.3796L352.133 93.3653L350.508 92.1995ZM361.068 90.2795L359.279 91.1739L359.279 91.1739L361.068 90.2795ZM360.876 92.1355L359.349 90.8436L359.32 90.8779L359.293 90.9135L360.876 92.1355ZM346.156 111.207L344.573 109.985L344.55 110.015L344.529 110.045L346.156 111.207ZM346.156 112.103L344.529 113.266L344.537 113.278L344.546 113.29L346.156 112.103ZM361.58 133.031L359.97 134.218L359.988 134.243L360.007 134.267L361.58 133.031ZM361.772 134.951L363.561 135.846L363.561 135.846L361.772 134.951ZM351.212 133.031L352.854 131.889L352.85 131.883L352.845 131.877L351.212 133.031ZM337.644 113.831H335.644V114.467L336.011 114.986L337.644 113.831ZM332.14 133.975C331.715 133.975 331.363 133.842 330.994 133.473L328.166 136.302C329.247 137.383 330.602 137.975 332.14 137.975V133.975ZM331.036 133.517C330.697 133.156 330.556 132.791 330.556 132.327H326.556C326.556 133.827 327.098 135.168 328.124 136.258L331.036 133.517ZM330.556 132.327V92.9035H326.556V132.327H330.556ZM330.556 92.9035C330.556 92.44 330.697 92.0747 331.036 91.7142L328.124 88.9727C327.098 90.0629 326.556 91.4042 326.556 92.9035H330.556ZM330.994 91.7577C331.363 91.3885 331.715 91.2555 332.14 91.2555V87.2555C330.602 87.2555 329.247 87.8478 328.166 88.9292L330.994 91.7577ZM332.14 91.2555H333.868V87.2555H332.14V91.2555ZM333.868 91.2555C334.293 91.2555 334.645 91.3885 335.014 91.7577L337.842 88.9292C336.761 87.8478 335.406 87.2555 333.868 87.2555V91.2555ZM335.014 91.7577C335.383 92.1269 335.516 92.4787 335.516 92.9035H339.516C339.516 91.3655 338.924 90.0107 337.842 88.9292L335.014 91.7577ZM335.516 92.9035V109.479H339.516V92.9035H335.516ZM335.516 109.479C335.516 109.809 335.6 110.424 336.118 110.942C336.636 111.46 337.25 111.543 337.58 111.543V107.543C337.867 107.543 338.45 107.617 338.946 108.113C339.443 108.61 339.516 109.193 339.516 109.479H335.516ZM337.58 111.543C337.91 111.543 338.524 111.46 339.042 110.942C339.56 110.424 339.644 109.809 339.644 109.479H335.644C335.644 109.193 335.717 108.61 336.214 108.113C336.71 107.617 337.293 107.543 337.58 107.543V111.543ZM339.248 110.674L352.112 93.3938L348.904 91.0052L336.04 108.285L339.248 110.674ZM352.133 93.3653C353.162 91.9305 354.475 91.2555 356.268 91.2555V87.2555C353.197 87.2555 350.67 88.5431 348.883 91.0336L352.133 93.3653ZM356.268 91.2555H359.468V87.2555H356.268V91.2555ZM359.468 91.2555C359.492 91.2555 359.484 91.2582 359.453 91.2497C359.419 91.2408 359.377 91.2236 359.334 91.196C359.291 91.1688 359.266 91.1425 359.255 91.1304C359.246 91.1198 359.257 91.1295 359.279 91.1739L362.857 89.385C362.558 88.7875 362.118 88.2285 361.49 87.8269C360.857 87.4216 360.156 87.2555 359.468 87.2555V91.2555ZM359.279 91.1739C359.318 91.2525 359.271 91.1965 359.287 91.0497C359.294 90.9816 359.312 90.9228 359.331 90.8799C359.35 90.8392 359.363 90.8278 359.349 90.8436L362.403 93.4273C362.853 92.8958 363.185 92.2348 363.265 91.4613C363.345 90.6957 363.159 89.9891 362.857 89.385L359.279 91.1739ZM359.293 90.9135L344.573 109.985L347.739 112.429L362.459 93.3574L359.293 90.9135ZM344.529 110.045C344.236 110.455 343.996 111.002 343.996 111.655C343.996 112.309 344.236 112.856 344.529 113.266L347.783 110.941C347.863 111.052 347.996 111.301 347.996 111.655C347.996 112.01 347.863 112.259 347.783 112.37L344.529 110.045ZM344.546 113.29L359.97 134.218L363.19 131.845L347.766 110.917L344.546 113.29ZM360.007 134.267C360.031 134.297 360.029 134.302 360.019 134.279C360.009 134.254 359.995 134.212 359.99 134.158C359.985 134.105 359.989 134.062 359.995 134.037C359.999 134.014 360.001 134.02 359.983 134.057L363.561 135.846C363.869 135.23 364.046 134.522 363.97 133.76C363.894 132.998 363.579 132.338 363.153 131.796L360.007 134.267ZM359.983 134.057C359.965 134.094 359.958 134.097 359.971 134.082C359.985 134.066 360.012 134.041 360.052 134.016C360.091 133.992 360.126 133.98 360.144 133.975C360.161 133.971 360.152 133.975 360.108 133.975V137.975C360.795 137.975 361.503 137.82 362.148 137.423C362.794 137.025 363.253 136.462 363.561 135.846L359.983 134.057ZM360.108 133.975H356.908V137.975H360.108V133.975ZM356.908 133.975C355.117 133.975 353.838 133.304 352.854 131.889L349.57 134.174C351.317 136.685 353.835 137.975 356.908 137.975V133.975ZM352.845 131.877L339.277 112.677L336.011 114.986L349.579 134.186L352.845 131.877ZM339.644 113.831C339.644 113.502 339.56 112.887 339.042 112.369C338.524 111.851 337.91 111.767 337.58 111.767V115.767C337.293 115.767 336.71 115.694 336.214 115.198C335.717 114.701 335.644 114.118 335.644 113.831H339.644ZM337.58 111.767C337.25 111.767 336.636 111.851 336.118 112.369C335.6 112.887 335.516 113.502 335.516 113.831H339.516C339.516 114.118 339.443 114.701 338.946 115.198C338.45 115.694 337.867 115.767 337.58 115.767V111.767ZM335.516 113.831V132.327H339.516V113.831H335.516ZM335.516 132.327C335.516 132.752 335.383 133.104 335.014 133.473L337.842 136.302C338.924 135.22 339.516 133.865 339.516 132.327H335.516ZM335.014 133.473C334.645 133.842 334.293 133.975 333.868 133.975V137.975C335.406 137.975 336.761 137.383 337.842 136.302L335.014 133.473ZM333.868 133.975H332.14V137.975H333.868V133.975Z" fill="white"/>
</svg>
